<svg width="120" height="32" viewBox="0 0 120 32" fill="none" xmlns="http://www.w3.org/2000/svg">
<g clip-path="url(#clip0_10_1003)">
<path d="M51.8007 24.5932H49.8394V11.6169H51.7374C51.7576 15.9433 51.7777 20.2669 51.8007 24.5932Z" fill="black"/>
<path d="M68.6583 11.8333V13.8495H64.1146V23.3621C63.9334 23.9282 63.4359 24.3635 62.8205 24.489C62.1102 24.6333 61.3597 24.3422 60.9513 23.7573C59.2115 20.9345 57.7391 18.1331 55.9993 15.313C56.0194 18.3281 56.0453 21.3618 56.0654 24.3769H53.7562C53.7562 20.4271 53.7591 16.4426 53.7591 12.4929C53.8051 12.3941 54.0179 11.9828 54.5183 11.7985C55.0244 11.6143 55.6254 11.7318 56.0597 12.0976C57.9778 15.1688 59.8959 18.2399 61.814 21.3111V11.8333H68.6583Z" fill="black"/>
<path d="M68.0544 17.8126C68.0544 18.6272 67.3584 19.2975 66.5532 19.3696C65.5323 19.4577 64.5977 18.5604 64.7243 17.615C64.8192 16.8699 65.5554 16.229 66.4382 16.2584C67.3326 16.2851 68.0515 16.9874 68.0544 17.8126Z" fill="#F68C1F"/>
<path d="M80.5782 11.4033C80.5782 15.313 80.3999 19.415 80.3999 23.3247C80.3654 23.4315 80.1382 24.1125 79.425 24.4009C78.7176 24.6893 77.8233 24.473 77.251 23.8428C75.5543 20.9212 74.2228 18.1198 72.5233 15.1982C72.5233 18.2853 72.6182 21.5434 72.6182 24.6333H69.9409C69.9466 20.6835 69.9984 16.448 70.0041 12.4982C70.03 12.4181 70.2457 11.7638 70.9359 11.5181C71.5628 11.2965 72.3133 11.4994 72.7792 12.0389C74.4644 14.8697 76.1467 17.7032 77.8319 20.5366C77.8233 17.5483 77.6939 14.389 77.6852 11.4033C78.5508 11.4086 79.7155 11.398 80.5782 11.4033Z" fill="black"/>
<path d="M95.4228 17.5616C95.1266 14.2127 92.061 11.4754 88.3974 11.4807C84.5007 11.4888 81.3489 14.6026 81.3748 18.1358C81.4035 21.9413 85.1104 25.0926 89.1853 24.684C92.9151 24.3101 95.7334 21.0734 95.4228 17.5616ZM92.895 18.7607C92.5528 20.6835 90.6606 22.2565 88.5095 22.2565C85.8753 22.2565 83.7041 19.8877 84.0435 17.4575C84.3253 15.4465 86.2664 13.8015 88.4549 13.8041C91.1552 13.8068 93.3292 16.3145 92.895 18.7607Z" fill="black"/>
<path d="M88.567 20.1948C87.3247 20.1948 86.3124 19.1746 86.3469 18.0316C86.3786 16.9874 87.2758 16.0527 88.4549 15.9967C89.6627 15.9379 90.6692 16.8245 90.7871 17.8741C90.9194 19.0625 89.8812 20.2001 88.567 20.1948Z" fill="#F68C1F"/>
<path d="M106.399 11.5582C105.013 15.6468 103.627 19.7354 102.241 23.8214C102.198 23.8989 101.764 24.6439 100.864 24.7614C100.096 24.8629 99.3079 24.4677 98.9254 23.7707C97.5106 19.7087 96.0957 15.6468 94.6808 11.5849H97.0131C98.1662 14.8296 99.3165 18.0744 100.47 21.3191C101.652 18.0744 102.831 14.8296 104.01 11.5849C104.806 11.5769 105.603 11.5689 106.399 11.5582Z" fill="black"/>
<path d="M115.613 24.5798H113.057C112.119 21.1188 111.185 17.6578 110.247 14.194C109.031 17.6738 107.811 21.1535 106.595 24.6333C105.79 24.6226 104.985 24.6146 104.179 24.6066C105.695 20.5099 107.213 16.4133 108.729 12.3166C109.042 11.7692 109.655 11.4327 110.305 11.454C111.205 11.4861 111.676 12.1884 111.708 12.2365C113.011 16.3518 114.311 20.4645 115.613 24.5798Z" fill="black"/>
<path d="M23.9837 9.08525V21.6182C23.9837 21.8585 23.7737 22.0535 23.5149 22.0535H21.2718C21.013 22.0535 20.8002 21.8585 20.8002 21.6182V9.08525C20.8002 8.8449 21.013 8.64995 21.2718 8.64995H23.5149C23.7737 8.64995 23.9837 8.8449 23.9837 9.08525Z" fill="#F68C1F"/>
<path d="M47.4353 2.42754C46.7193 2.42754 46.1211 2.88955 45.9658 3.51179C45.1692 3.51713 44.4072 3.52247 43.6911 3.52514C40.1309 3.55452 37.6779 3.59458 37.3501 3.62662C37.0251 3.66134 36.8095 3.81089 36.8095 3.81089C36.6599 3.91771 36.5852 4.03789 36.5564 4.08062C36.1107 4.76428 35.038 5.4613 34.3478 6.28116C34.2961 6.34525 34.158 6.51083 33.9136 6.63367C33.7439 6.7218 33.58 6.75385 33.4679 6.76987H30.3045C29.4131 6.26247 28.5245 5.75506 27.633 5.25032C30.2643 5.27436 32.1249 5.26635 32.3233 5.23964C32.3866 5.23163 32.6281 5.17288 32.7087 5.1435C32.8064 5.10611 32.8668 5.0714 32.8668 5.0714C32.979 5.00997 33.0624 4.94054 33.1199 4.88713C34.7102 3.39428 35.8087 2.35009 35.9956 2.13378C36.0215 2.10173 36.1222 1.97889 36.3033 1.88008C36.4327 1.81064 36.5564 1.77859 36.6455 1.76257H42.4114C42.6185 2.22725 43.1073 2.55306 43.6825 2.55306C44.4417 2.55306 45.0571 1.98156 45.0571 1.27653C45.0571 0.5715 44.4417 0 43.6825 0C43.0728 0 42.5581 0.365867 42.3769 0.875944C40.3006 0.918673 38.2272 0.961402 36.1509 1.00146C36.0646 1.0255 35.9669 1.05754 35.8633 1.10294C35.7598 1.14567 35.6707 1.19374 35.5959 1.23647C34.0401 2.64119 33.094 3.54383 32.7921 3.93107C32.7403 3.99783 32.5764 4.21682 32.2687 4.35034C32.0156 4.45984 31.7654 4.46251 31.5986 4.45183C29.8732 4.48654 28.1449 4.52126 26.4194 4.55598H26.4165C26.3792 4.53461 26.3418 4.51592 26.3044 4.49455C25.6027 4.09397 24.901 3.69606 24.1965 3.29547C24.1965 3.55986 24.1275 3.81089 24.0038 4.02988C24.0527 4.05391 24.0987 4.08062 24.1476 4.10732L26.6063 5.51471L29.3728 7.09835L30.2729 7.61644L32.9531 9.14934L33.163 9.27219C33.2464 9.31759 33.3212 9.36299 33.3931 9.40839C34.1005 9.85437 34.3651 10.2656 34.3536 11.1362L34.3507 11.5048L34.2558 19.7675L34.2529 19.9838C34.2414 20.9479 34.1178 21.3885 33.2177 21.8719L32.7834 22.1042L23.8859 26.8739C22.9657 27.3679 22.6349 27.5308 21.2632 27.0501L20.9095 26.8552L12.2995 22.0936L11.7733 21.8025C10.8962 21.3191 10.8847 20.996 10.8674 20.0506L10.8617 19.7915L10.715 11.3819L10.7121 11.0855C10.6949 10.1027 10.9738 9.63539 11.8854 9.13599L12.1615 8.98377L21.013 4.13136C20.8491 3.88834 20.7571 3.60259 20.7571 3.2928V3.29013L10.8645 8.65262C10.252 8.98377 9.87816 9.59266 9.88392 10.2496L9.88967 11.7825H6.06206C5.90964 11.3018 5.42652 10.952 4.86 10.952C4.16407 10.952 3.6033 11.4754 3.6033 12.119C3.6033 12.7626 4.16407 13.286 4.86 13.286C5.37476 13.286 5.81474 13.0003 6.01029 12.5917H9.89542L9.90405 14.1593H2.9994C2.78659 13.6225 2.2172 13.2353 1.54427 13.2353C0.690177 13.2353 0 13.8549 0 14.6187C0 15.3824 0.690177 15.9993 1.54427 15.9993C2.25746 15.9993 2.85848 15.564 3.03391 14.9738H9.9098L9.92418 17.2839H6.01605C5.86076 16.8032 5.38051 16.4533 4.81111 16.4533C4.11806 16.4533 3.55441 16.9741 3.55441 17.6204C3.55441 18.2666 4.11806 18.7874 4.81111 18.7874C5.32587 18.7874 5.76873 18.499 5.96141 18.0904H9.92705L9.94143 20.5847C9.94431 21.223 10.3067 21.8131 10.8933 22.1443L21.4473 28.1183C22.0742 28.4735 22.8621 28.4762 23.4919 28.1264L34.0401 22.2725C34.6268 21.9493 34.992 21.3672 35.0064 20.7342L35.2393 10.6475C35.2479 10.319 35.1617 10.0039 34.9977 9.72618C34.8856 9.53123 34.7476 9.38168 34.621 9.27219H35.7598C35.8892 9.24281 36.0934 9.17872 36.3033 9.03718C36.4442 8.93837 36.5449 8.83422 36.611 8.75143C37.7383 7.62178 38.1553 7.15977 38.256 7.00488C38.279 6.96749 38.3652 6.82328 38.5435 6.71913C38.6269 6.67106 38.7017 6.64703 38.7448 6.63367H42.6156C42.7709 7.09835 43.2367 7.43484 43.7889 7.43484C44.4676 7.43484 45.0197 6.92209 45.0197 6.28917C45.0197 5.65625 44.4676 5.14884 43.7889 5.14884C43.2396 5.14884 42.7737 5.48266 42.6156 5.942C40.3322 5.91796 38.6844 5.92063 38.4544 5.94467C38.2962 5.96336 38.1639 6.03013 38.1639 6.03013C38.0604 6.08354 37.9828 6.15297 37.931 6.2144C36.8785 7.21586 36.1969 7.89151 36.0301 8.11316C36.0043 8.14788 35.9065 8.28408 35.7224 8.38022C35.6045 8.44431 35.4866 8.47102 35.3975 8.4817H33.3154C32.677 8.11851 32.0415 7.75798 31.4059 7.39478C32.26 7.40013 33.1141 7.4028 33.9682 7.40814C34.1379 7.38944 34.4485 7.33336 34.7476 7.12239C34.8655 7.03693 34.9546 6.9488 35.0179 6.86868C36.0589 5.77375 36.8181 4.98327 37.0251 4.7536C37.0712 4.70286 37.1862 4.572 37.3875 4.46785C37.5226 4.39574 37.6434 4.3637 37.7124 4.35034H46.0348C46.2591 4.86309 46.8027 5.22629 47.4353 5.22629C48.2693 5.22629 48.9422 4.60138 48.9422 3.82691C48.9422 3.05245 48.2693 2.42754 47.4353 2.42754ZM43.6825 0.729063C44.0074 0.729063 44.2691 0.974755 44.2691 1.27653C44.2691 1.5783 44.0074 1.82132 43.6825 1.82132C43.3575 1.82132 43.0958 1.5783 43.0958 1.27653C43.0958 0.974755 43.3575 0.729063 43.6825 0.729063ZM4.86 12.5917C4.57818 12.5917 4.35387 12.3807 4.35387 12.119C4.35387 11.86 4.57818 11.649 4.86 11.649C5.13895 11.649 5.36613 11.86 5.36613 12.119C5.36613 12.3807 5.13895 12.5917 4.86 12.5917ZM1.47525 15.1394H1.42349C1.0784 15.1394 0.79658 14.8804 0.79658 14.5572C0.79658 14.2368 1.0784 13.975 1.42349 13.975H1.47525C1.8376 13.975 2.12805 14.2368 2.12805 14.5572C2.12805 14.8804 1.8376 15.1394 1.47525 15.1394ZM4.81111 18.0904C4.53217 18.0904 4.30498 17.8794 4.30498 17.6204C4.30498 17.3613 4.53217 17.1503 4.81111 17.1503C5.09006 17.1503 5.31724 17.3613 5.31724 17.6204C5.31724 17.8794 5.09006 18.0904 4.81111 18.0904ZM43.8061 5.74705C44.1225 5.74705 44.3755 5.98206 44.3755 6.27582C44.3755 6.56691 44.1225 6.80459 43.8061 6.80459C43.4927 6.80459 43.2367 6.56691 43.2367 6.27582C43.2367 5.98206 43.4927 5.74705 43.8061 5.74705ZM47.4353 4.47586C47.0816 4.47586 46.794 4.2088 46.794 3.88033C46.794 3.54918 47.0816 3.28212 47.4353 3.28212C47.789 3.28212 48.0766 3.54918 48.0766 3.88033C48.0766 4.2088 47.789 4.47586 47.4353 4.47586Z" fill="#231F20"/>
<path d="M24.1965 3.2928V3.29547C24.1965 3.55986 24.1275 3.81089 24.0038 4.02988C23.7162 4.54262 23.1411 4.89247 22.4768 4.89247C21.8585 4.89247 21.315 4.58802 21.013 4.13136C20.8491 3.88834 20.7571 3.60259 20.7571 3.2928V3.29013C20.76 2.40885 21.5278 1.69581 22.4768 1.69581C23.4258 1.69581 24.1965 2.41152 24.1965 3.2928Z" fill="#F68C1F"/>
<path opacity="0.94" d="M88.5434 26.0126L88.6056 25.9651L88.6786 25.9717C88.72 25.9717 88.7554 25.9616 88.7844 25.9413C88.8135 25.921 88.8373 25.9098 88.8555 25.9074C88.8736 25.905 88.8957 25.8938 88.9213 25.8735C88.9469 25.8532 88.984 25.839 89.0326 25.8313C89.0815 25.8233 89.1166 25.8091 89.1384 25.7888C89.1603 25.7685 89.1853 25.7554 89.2135 25.7498C89.2417 25.7442 89.2736 25.7343 89.3101 25.721L89.6423 25.6262C89.6474 25.6262 89.6604 25.6307 89.6825 25.6398H89.6972C89.7265 25.6398 89.755 25.6291 89.7832 25.6077C89.8111 25.5861 89.8444 25.5754 89.8835 25.5754C89.908 25.5754 89.9554 25.5618 90.0259 25.5348L90.0477 25.5551C90.0868 25.5145 90.1196 25.494 90.1464 25.494H90.1682C90.1731 25.494 90.195 25.4985 90.2341 25.5076C90.2948 25.4897 90.3448 25.4804 90.3839 25.4804L90.4679 25.4737C90.4728 25.4737 90.48 25.4761 90.4897 25.4804C90.509 25.4601 90.5357 25.4475 90.57 25.443H90.6102L90.76 25.4091L90.8038 25.4227C90.8331 25.4 90.878 25.3888 90.9389 25.3888H90.9754L91.012 25.3954C91.0169 25.3954 91.0393 25.3888 91.0793 25.3751C91.1192 25.3615 91.2173 25.3548 91.3729 25.3548L91.4678 25.3685C91.5287 25.3458 91.5615 25.3345 91.5664 25.3345L91.6685 25.3548L91.7088 25.3412H91.7234C91.7286 25.3412 91.7407 25.3458 91.7599 25.3548H91.7671L92.03 25.3209C92.0349 25.3209 92.0446 25.3233 92.0593 25.3276C92.0786 25.3116 92.0932 25.3038 92.103 25.3038L92.1723 25.3207C92.1916 25.3207 92.2261 25.3081 92.2744 25.2833L92.2963 25.3036L92.5445 25.2763L92.6356 25.283L92.7158 25.2694C92.7961 25.2694 92.8562 25.2891 92.8964 25.3289C92.9367 25.3682 92.9568 25.4085 92.9568 25.4491L92.9715 25.5543L92.9496 25.612L92.9425 25.6799C92.9301 25.7071 92.912 25.725 92.8878 25.7341C92.8878 25.7386 92.8769 25.7437 92.855 25.7496C92.8332 25.7552 92.8113 25.7648 92.7892 25.7781C92.767 25.7915 92.6957 25.7984 92.5738 25.7984C92.5131 25.7984 92.474 25.7811 92.4573 25.7458C92.4401 25.7108 92.4219 25.6911 92.4027 25.6865L92.2457 25.6254C92.2408 25.6208 92.2264 25.6187 92.2019 25.6187H92.1726L92.0231 25.6323C92.0179 25.6323 92.005 25.6299 91.9828 25.6256C91.9512 25.6393 91.9342 25.6459 91.9316 25.6459L91.6619 25.6323L91.5523 25.639L91.4755 25.6254C91.4658 25.6254 91.4488 25.6288 91.4243 25.6355C91.4002 25.6422 91.349 25.6481 91.2714 25.6523C91.1934 25.6569 91.1546 25.6796 91.1546 25.7202C91.1546 25.745 91.165 25.772 91.1854 25.8016C91.2061 25.831 91.2164 25.8548 91.2164 25.8729C91.1799 25.9205 91.1618 25.9509 91.1618 25.9645C91.152 25.9712 91.1348 25.9859 91.1106 26.0086C91.0862 26.0313 91.0413 26.0668 90.9754 26.1154C90.9096 26.164 90.8647 26.2086 90.8406 26.2492C90.8161 26.2898 90.7868 26.3104 90.7529 26.3104C90.7092 26.3488 90.6784 26.3838 90.6617 26.4156L90.6324 26.4428C90.6275 26.4474 90.6252 26.4575 90.6252 26.4733C90.6252 26.4869 90.618 26.5005 90.6033 26.5139L90.5705 26.5953C90.5533 26.602 90.5038 26.6607 90.421 26.7716L90.3773 26.7919L90.3336 26.8394H90.2824C90.2605 26.8394 90.2496 26.853 90.2496 26.88L90.2643 26.9783C90.2278 27.0077 90.1984 27.0472 90.1766 27.0968L90.1329 27.1647C90.0817 27.2122 90.0561 27.2381 90.0561 27.2427C90.0561 27.2539 90.0319 27.3028 89.9833 27.3885L89.9761 27.4224C89.9761 27.4608 89.8907 27.5717 89.7205 27.7546C89.696 27.7976 89.6814 27.863 89.6768 27.9512C89.6037 28.0844 89.554 28.1488 89.5272 28.1445C89.522 28.2302 89.5071 28.3005 89.4815 28.3547C89.4559 28.4089 89.4231 28.4887 89.3829 28.5937C89.3426 28.6992 89.3009 28.7742 89.2569 28.8194L89.2422 28.8466C89.2325 28.8645 89.2204 28.8829 89.2057 28.9008C89.2005 28.962 89.1775 29.0592 89.1364 29.1924L89.1146 29.3383L89.0415 29.5281C89.0343 29.5417 89.0306 29.5554 89.0306 29.5687C89.0306 29.5778 89.0384 29.5954 89.0542 29.6213C89.07 29.6472 89.078 29.6715 89.078 29.694C89.078 29.7255 89.072 29.7511 89.0599 29.7703C89.0476 29.7893 89.0418 29.8149 89.0418 29.8465C89.0418 29.9167 89.0015 29.9629 88.9213 29.9856H88.892L88.8152 29.9923C88.7131 29.9923 88.6202 29.9471 88.5377 29.8566C88.4549 29.7661 88.4135 29.6419 88.4135 29.4838C88.4135 29.4747 88.4206 29.4403 88.4353 29.3802C88.45 29.3204 88.4583 29.2814 88.4609 29.2632C88.4632 29.2453 88.4692 29.2264 88.479 29.2074C88.4885 29.1882 88.4937 29.1604 88.4937 29.1241C88.4937 29.0132 88.5236 28.9174 88.5831 28.8359C88.6426 28.7545 88.6823 28.696 88.7019 28.6597C88.7068 28.6436 88.7151 28.6335 88.7275 28.6292C88.7203 28.6113 88.7166 28.5886 88.7166 28.5614C88.7166 28.496 88.7467 28.4428 88.8077 28.402C88.8126 28.3841 88.8209 28.363 88.8333 28.3395C88.8454 28.3154 88.871 28.258 88.9101 28.1664C88.9489 28.0751 88.9998 28.0214 89.0634 28.0054C89.0608 28.0008 89.0754 27.9827 89.1071 27.9512L89.0924 27.8326C89.0924 27.8147 89.1143 27.784 89.1583 27.741L89.2204 27.6462C89.2299 27.6077 89.2618 27.5727 89.3153 27.541C89.3299 27.5183 89.3455 27.5046 89.3627 27.5004C89.365 27.4913 89.3754 27.463 89.3935 27.4157C89.4116 27.3684 89.4507 27.3092 89.5103 27.2376C89.5698 27.1666 89.627 27.0926 89.6819 27.0157C89.7369 26.9388 89.7866 26.8992 89.8318 26.8971C89.8769 26.895 89.9016 26.8709 89.9068 26.8258L89.9287 26.7003C89.9991 26.6437 90.042 26.6044 90.0564 26.5817L90.1075 26.5275C90.117 26.496 90.13 26.4751 90.1458 26.4647C90.1616 26.4548 90.1817 26.4338 90.2062 26.4022C90.2303 26.3707 90.2608 26.3421 90.2973 26.3176C90.3287 26.2249 90.4006 26.1448 90.5127 26.077L90.5711 26.0193C90.6125 25.9651 90.6465 25.9282 90.6732 25.909C90.6999 25.89 90.7198 25.8644 90.7333 25.8329C90.7468 25.8014 90.773 25.7776 90.8118 25.7616C90.8506 25.7455 90.8702 25.7277 90.8702 25.7074C90.8702 25.6983 90.8604 25.6937 90.8409 25.6937C90.8213 25.6937 90.7882 25.7004 90.7422 25.714H90.7129L90.647 25.7277H90.6252L90.5631 25.714C90.5194 25.7277 90.4851 25.7343 90.461 25.7343C90.4558 25.7389 90.4403 25.749 90.4135 25.7648H90.3333L90.2896 25.8054L90.2568 25.812L90.1619 25.7984C90.1326 25.7984 90.0972 25.812 90.0561 25.839C90.0561 25.8436 90.0164 25.8516 89.9373 25.8628C89.8582 25.874 89.7835 25.8948 89.713 25.9255C89.6423 25.9557 89.5997 25.9712 89.5853 25.9712L89.5195 25.9576H89.5123C89.4806 25.9576 89.4513 25.9723 89.4246 26.0017C89.3975 26.031 89.3587 26.0492 89.3078 26.0559H89.2641C89.2276 26.0559 89.1781 26.0695 89.116 26.0965C89.0539 26.1234 89.0205 26.1371 89.0153 26.1371L88.9495 26.1304C88.9202 26.1483 88.8954 26.1608 88.8744 26.1678C88.8534 26.1747 88.8336 26.1851 88.814 26.1998C88.7948 26.2148 88.7752 26.2254 88.7557 26.2321C88.7364 26.2388 88.7137 26.2514 88.6881 26.2695C88.6625 26.2877 88.6426 26.2968 88.628 26.2968H88.6133L88.5693 26.2901C88.5521 26.2901 88.5302 26.3042 88.5035 26.3325C88.4764 26.3606 88.4517 26.3782 88.4284 26.3849C88.4054 26.3916 88.3835 26.4022 88.3626 26.4169C88.3418 26.4319 88.3206 26.4402 88.2984 26.4426C88.2861 26.4538 88.2691 26.4789 88.2472 26.5171C88.2254 26.5553 88.1972 26.5889 88.163 26.6172C88.129 26.6453 88.1063 26.6674 88.0954 26.6832C88.0845 26.6989 88.0741 26.7069 88.0646 26.7069C87.9453 26.7069 87.8855 26.638 87.8855 26.5002L87.9585 26.3544C88.0097 26.2391 88.0873 26.1691 88.192 26.1443C88.2188 26.1443 88.2881 26.1194 88.4002 26.0698L88.5426 26.0121L88.5434 26.0126Z" fill="#F68C1F"/>
<path opacity="0.94" d="M91.1089 28.508L91.1857 28.4503C91.244 28.4458 91.2754 28.4174 91.2806 28.3656C91.2855 28.3138 91.3254 28.2684 91.4008 28.23L91.4445 28.1723C91.481 28.1384 91.5808 28.0943 91.7439 28.0401C91.7853 28.0174 91.8132 27.9971 91.8278 27.9789C91.8327 27.9744 91.8373 27.9723 91.8422 27.9723L91.9006 27.9859C91.9322 27.9859 91.973 27.9781 92.0231 27.9621C92.0728 27.9461 92.1209 27.9383 92.1672 27.9383L92.3202 27.9317C92.3299 27.9317 92.3501 27.9383 92.3805 27.952C92.4107 27.9656 92.4478 27.9723 92.4918 27.9723C92.5456 27.9723 92.5945 27.995 92.6396 28.0401C92.6848 28.0852 92.7072 28.1272 92.7072 28.1656C92.7072 28.2358 92.6681 28.3069 92.5905 28.3793C92.5128 28.4516 92.451 28.4922 92.4047 28.5013C92.3633 28.5398 92.3317 28.5641 92.3098 28.5739C92.2879 28.5844 92.2655 28.6001 92.2425 28.6215C92.2195 28.6431 92.2005 28.6538 92.1861 28.6538C92.1764 28.6538 92.1689 28.6509 92.1643 28.6455C92.1594 28.6399 92.1522 28.637 92.1424 28.637C92.1036 28.637 92.061 28.681 92.015 28.7692L91.9495 28.7625C91.9081 28.7873 91.8813 28.8143 91.8692 28.8439C91.8572 28.8736 91.8316 28.888 91.7927 28.888C91.703 28.9716 91.642 29.0135 91.6104 29.0135C91.6052 29.0135 91.5886 29.009 91.5592 28.9999C91.54 29.0226 91.5299 29.0464 91.5299 29.0712C91.5299 29.0984 91.5106 29.1142 91.4718 29.1187L91.4244 29.1593L91.3878 29.1527L91.3151 29.224C91.2786 29.224 91.2409 29.2352 91.2021 29.2579C91.1969 29.2851 91.1897 29.3193 91.1802 29.3612C91.1704 29.4031 91.1655 29.4264 91.1655 29.4309C91.1655 29.4964 91.23 29.5292 91.3591 29.5292L91.5342 29.5054C91.5802 29.5054 91.6236 29.4942 91.6636 29.4715C91.7036 29.4488 91.747 29.4376 91.7933 29.4376C91.808 29.4376 91.8298 29.4331 91.8592 29.424L91.8957 29.4376C91.9127 29.4037 91.9443 29.3732 91.9906 29.346C92.0366 29.3188 92.0734 29.3054 92.1002 29.3054L92.1367 29.2851C92.1465 29.2579 92.1611 29.24 92.1804 29.2309L92.2097 29.2071C92.229 29.1892 92.2474 29.1799 92.2644 29.1799H92.3156L92.3302 29.1732C92.3595 29.1145 92.4001 29.08 92.4527 29.0696C92.5051 29.0597 92.5378 29.0432 92.5514 29.0205C92.5646 28.9978 92.5885 28.9841 92.6224 28.9799C92.6566 28.9753 92.6851 28.9601 92.7084 28.9339C92.7314 28.908 92.7601 28.8837 92.7941 28.8613C92.8283 28.8386 92.8519 28.8218 92.8654 28.8106C92.8789 28.7993 92.8904 28.7937 92.9002 28.7937C92.9149 28.7937 92.922 28.8039 92.922 28.8242C92.922 28.8445 92.9269 28.8546 92.9367 28.8546C92.9462 28.8546 92.9514 28.8501 92.9514 28.841C92.9514 28.8319 92.9488 28.8207 92.9442 28.8071V28.7833C92.9442 28.7494 92.9634 28.7267 93.0026 28.7155L93.1668 28.6172C93.1717 28.5697 93.1855 28.5422 93.2088 28.5339C93.232 28.5261 93.2496 28.5173 93.262 28.5066C93.274 28.4968 93.2876 28.4914 93.3022 28.4914C93.3336 28.4914 93.3497 28.5082 93.3497 28.5422L93.3315 28.6303L93.3497 28.7219C93.3497 28.7355 93.3382 28.7542 93.3149 28.7777C93.2919 28.8017 93.274 28.8378 93.262 28.8861C93.2496 28.935 93.2338 28.9614 93.2142 28.966H93.1924C93.1486 29.009 93.1139 29.0343 93.0883 29.0421C93.0627 29.0501 93.0428 29.0643 93.0282 29.0846L92.9039 29.2167C92.8795 29.2394 92.8588 29.2597 92.8415 29.2779C92.8243 29.2961 92.8113 29.3051 92.8013 29.3051L92.7719 29.2779C92.7719 29.2734 92.767 29.2712 92.7573 29.2712C92.7328 29.2712 92.7176 29.2848 92.7115 29.3118C92.7055 29.3391 92.6928 29.3626 92.6733 29.3831C92.6002 29.4146 92.5525 29.4443 92.5307 29.4712L92.5088 29.4779H92.4429C92.4113 29.4779 92.3892 29.5001 92.3771 29.5439C92.3647 29.5882 92.3302 29.6136 92.273 29.6203C92.2158 29.6269 92.1749 29.6406 92.1505 29.6609C92.1456 29.6654 92.1347 29.6699 92.1177 29.6745C92.1007 29.679 92.0665 29.6972 92.0156 29.7287L91.7088 29.8304C91.6843 29.8417 91.6685 29.8473 91.6613 29.8473L91.5592 29.8609C91.5443 29.8609 91.5296 29.8518 91.5152 29.8336C91.5008 29.8155 91.4911 29.8064 91.4859 29.8064L91.42 29.8267C91.3714 29.8403 91.3251 29.847 91.2814 29.847C91.257 29.847 91.23 29.8393 91.2009 29.8232C91.1719 29.8072 91.1486 29.796 91.1316 29.7893C91.0612 29.7893 91.0111 29.7386 90.9818 29.6368L90.9381 29.6435C90.9283 29.6435 90.8955 29.5631 90.8394 29.4029C90.8248 29.385 90.8015 29.3719 90.7701 29.3639C90.7385 29.3559 90.7227 29.334 90.7227 29.2977C90.7227 29.1959 90.7463 29.1275 90.7937 29.0926C90.8412 29.0573 90.8673 29.0309 90.8722 29.0127L90.9231 28.8365C90.9329 28.8298 90.945 28.8071 90.9596 28.7686L91.0436 28.6263C91.0534 28.6103 91.0752 28.571 91.1095 28.5077L91.1089 28.508ZM91.8807 28.3045L91.837 28.3248C91.8275 28.3293 91.7988 28.3491 91.7513 28.3841C91.7039 28.4193 91.6576 28.4474 91.6127 28.469C91.5676 28.4904 91.5216 28.5462 91.4741 28.6367C91.4267 28.7272 91.4028 28.779 91.4028 28.7927C91.4028 28.8063 91.41 28.813 91.4246 28.813L91.5489 28.7622C91.5952 28.7419 91.6386 28.7157 91.6786 28.6842C91.7185 28.6527 91.7766 28.614 91.852 28.5689L91.8813 28.5416C91.8865 28.5325 91.9089 28.5163 91.9489 28.4922C91.9891 28.4687 92.0188 28.4455 92.0383 28.4228L92.0749 28.4092C92.1165 28.348 92.1582 28.3109 92.2008 28.2973C92.2431 28.2836 92.2647 28.27 92.2647 28.2567C92.2647 28.2294 92.2416 28.2161 92.1953 28.2161C92.1761 28.2161 92.1467 28.2273 92.1076 28.25H92.0237C92.0142 28.25 91.9871 28.2636 91.9434 28.2906L91.8813 28.3042L91.8807 28.3045Z" fill="#F68C1F"/>
<path opacity="0.94" d="M93.3422 28.908V28.8741C93.3422 28.8514 93.3666 28.8028 93.4152 28.7283C93.4638 28.6538 93.5199 28.6052 93.5832 28.5825C93.5881 28.5825 93.5904 28.5801 93.5904 28.5758L93.5832 28.5216C93.5927 28.5125 93.6171 28.4831 93.6559 28.4335C93.695 28.3835 93.7327 28.3622 93.7692 28.3691C93.796 28.3328 93.8302 28.3029 93.8713 28.2794C93.9127 28.2553 93.9501 28.2244 93.9846 28.1859L94.1195 28.1079C94.2144 28.0492 94.2837 28.0198 94.3277 28.0198H94.3823C94.4114 27.9747 94.4502 27.952 94.4988 27.952C94.5451 27.952 94.5756 27.9586 94.59 27.9723C94.5949 27.9768 94.5995 27.9789 94.6046 27.9789C94.6069 27.9789 94.6216 27.9699 94.6483 27.9517C94.6751 27.9338 94.7079 27.9245 94.747 27.9245C94.7565 27.9245 94.8114 27.9424 94.9109 27.9787C94.9402 27.9514 94.9678 27.9381 94.9949 27.9381C95.0044 27.9381 95.0216 27.9448 95.0461 27.9584C95.0702 27.972 95.0952 27.9837 95.1208 27.9942C95.1464 28.004 95.1714 28.046 95.1956 28.1194C95.22 28.1929 95.2321 28.2342 95.2321 28.2433C95.2321 28.2796 95.1999 28.3218 95.1355 28.3704C95.0711 28.4193 95.011 28.4434 94.9552 28.4434C94.9359 28.4434 94.9118 28.4273 94.8824 28.3958C94.8094 28.3822 94.7476 28.3654 94.6967 28.3451C94.6288 28.3587 94.5765 28.3755 94.5399 28.3958H94.533L94.5002 28.3686L94.4709 28.3619H94.4637C94.4565 28.371 94.4465 28.3867 94.4344 28.4094C94.3956 28.4343 94.3622 28.4506 94.3343 28.4586C94.3061 28.4666 94.2837 28.4789 94.267 28.4962C94.2498 28.5128 94.2213 28.5307 94.1813 28.5486C94.1411 28.5665 94.1114 28.5916 94.0919 28.6231C94.0433 28.6479 94.0079 28.6626 93.9864 28.6671H93.9645C93.9452 28.7035 93.9001 28.763 93.8296 28.8469L93.735 28.9927C93.7132 29.0106 93.6861 29.0317 93.6548 29.0552C93.6231 29.0792 93.6073 29.1 93.6073 29.1179C93.6073 29.1225 93.6096 29.134 93.6145 29.1519V29.1858C93.6145 29.1994 93.6027 29.2157 93.5797 29.2352C93.5567 29.2541 93.5452 29.2683 93.5452 29.2774L93.5524 29.3519L93.5231 29.4704C93.5231 29.5407 93.5777 29.5757 93.6873 29.5757H93.7419L93.8986 29.5519C93.9498 29.5452 93.9921 29.5383 94.026 29.5316C94.0603 29.5249 94.0798 29.5215 94.0844 29.5215C94.0896 29.5215 94.1089 29.5089 94.1428 29.4841H94.1793L94.2121 29.4774C94.2216 29.4299 94.2909 29.3903 94.42 29.3588C94.4493 29.3182 94.4982 29.288 94.5678 29.2691C94.6371 29.2499 94.707 29.2085 94.7775 29.1452H94.8318C94.839 29.1452 94.8617 29.1321 94.8994 29.1062C94.9371 29.08 94.9759 29.0592 95.0159 29.0434C95.0558 29.0277 95.0811 29.014 95.0906 29.0028C95.1004 28.9916 95.1188 28.9815 95.1453 28.9724C95.189 28.9091 95.2413 28.8696 95.3023 28.8538L95.317 28.8402C95.3558 28.8087 95.3802 28.7927 95.3897 28.7927L95.4334 28.7993C95.4579 28.7993 95.4731 28.7852 95.4789 28.7569C95.4849 28.7288 95.524 28.6904 95.5956 28.6415C95.6672 28.5929 95.7129 28.5689 95.7325 28.5689C95.7785 28.5689 95.8018 28.5916 95.8018 28.6367C95.8018 28.6706 95.7811 28.6898 95.7397 28.6944C95.7664 28.7531 95.78 28.786 95.78 28.7927C95.78 28.8672 95.7397 28.9158 95.6595 28.9385C95.6497 28.943 95.6448 28.9497 95.6448 28.9588L95.6376 29.0199C95.6399 29.0199 95.6399 29.0215 95.6376 29.0253C95.635 29.0285 95.6304 29.0335 95.6229 29.0405L95.5683 29.0472L95.5536 29.0675C95.4998 29.0947 95.438 29.1409 95.3676 29.2066L95.2945 29.2779H95.2836C95.2592 29.2552 95.2399 29.244 95.2252 29.244C95.2154 29.244 95.2034 29.26 95.1887 29.2915C95.1059 29.3684 95.0463 29.4125 95.0098 29.4237C94.9952 29.4283 94.9696 29.4464 94.933 29.4779L94.86 29.522H94.8054C94.7982 29.5287 94.7913 29.5385 94.7855 29.5506C94.7795 29.5631 94.7579 29.5818 94.7214 29.6066C94.6849 29.6315 94.6587 29.6536 94.6432 29.6726C94.6274 29.6918 94.6049 29.706 94.5759 29.7151L94.51 29.7015C94.4882 29.7378 94.4479 29.7557 94.3895 29.7557C94.3749 29.7647 94.3536 29.7824 94.3254 29.808C94.2975 29.8342 94.2785 29.847 94.269 29.847C94.2593 29.847 94.2337 29.8334 94.1922 29.8064H94.1851C94.1606 29.8064 94.1485 29.8232 94.1485 29.8571C94.1485 29.8911 94.1261 29.909 94.081 29.9114C94.0361 29.9138 93.9941 29.925 93.955 29.9453H93.9478C93.892 29.9453 93.8518 29.9357 93.8273 29.9164C93.8029 29.8975 93.781 29.8833 93.7615 29.8742C93.6858 29.8969 93.6459 29.9082 93.641 29.9082C93.6116 29.9082 93.5837 29.8969 93.557 29.8742L93.4 29.7997C93.3905 29.7931 93.3732 29.7623 93.3488 29.7081L93.3269 29.6809C93.249 29.6673 93.197 29.5928 93.1699 29.4571L93.1406 29.3756C93.1357 29.3711 93.1334 29.361 93.1334 29.3452C93.1334 29.3225 93.1432 29.288 93.1627 29.2418C93.1823 29.1954 93.2018 29.1334 93.2211 29.0552C93.2407 28.9775 93.2809 28.9281 93.3416 28.9078L93.3422 28.908Z" fill="#F68C1F"/>
<path opacity="0.94" d="M95.6534 28.6535L95.6828 28.6161C95.7463 28.6025 95.7866 28.5798 95.8038 28.5483C95.811 28.5323 95.8723 28.4738 95.9873 28.372C96.1023 28.2703 96.1656 28.2161 96.178 28.2094C96.2556 28.0783 96.3028 27.98 96.3197 27.9146C96.3488 27.901 96.3631 27.8852 96.3631 27.867L96.3925 27.8128L96.4253 27.8062L96.4396 27.7925V27.7621C96.4396 27.7215 96.4871 27.6264 96.5817 27.4774C96.6763 27.2942 96.7275 27.1933 96.7347 27.174C96.7419 27.1548 96.7566 27.1265 96.7784 27.0891C96.8003 27.052 96.8336 26.9801 96.8791 26.8739C96.9239 26.7678 96.9938 26.657 97.0887 26.5416C97.0985 26.5371 97.1131 26.5117 97.1324 26.4653C97.1517 26.4191 97.1824 26.3731 97.2236 26.328L97.2673 26.2567C97.282 26.234 97.3075 26.1947 97.3441 26.1381C97.3806 26.0815 97.4139 26.0369 97.4447 26.0041C97.4749 25.9715 97.4982 25.937 97.514 25.9007C97.5298 25.8644 97.5485 25.8388 97.5704 25.8227C97.5922 25.8067 97.6147 25.7781 97.638 25.7365C97.661 25.6945 97.6969 25.6737 97.7455 25.6737C97.8404 25.6737 97.9091 25.71 97.952 25.7821C97.9943 25.8545 98.0158 25.9178 98.0158 25.972C98.0158 25.9787 98.0012 26.0273 97.9721 26.1178L97.9175 26.4231C97.8689 26.4458 97.8444 26.4717 97.8444 26.501C97.8444 26.6207 97.7944 26.7451 97.6946 26.8739C97.6848 26.8829 97.6768 26.9123 97.671 26.962C97.665 27.0119 97.6434 27.0525 97.6069 27.084C97.5704 27.1155 97.5376 27.1687 97.5083 27.2435L97.1686 27.6943L97.1393 27.7215C97.1246 27.7306 97.1077 27.7495 97.0881 27.7792L97.0297 27.7624C96.9639 27.7624 96.9311 27.7816 96.9311 27.82C96.9311 27.8337 96.936 27.8516 96.9458 27.8743V27.8809C96.9458 27.8833 96.8558 28.0019 96.6757 28.2369C96.666 28.2505 96.649 28.2946 96.6246 28.3691L96.5734 28.4709C96.5222 28.5363 96.4862 28.6001 96.4658 28.6623C96.4451 28.7246 96.4175 28.775 96.3836 28.8132C96.335 28.915 96.3105 28.9681 96.3105 28.9727C96.3105 28.9863 96.3177 28.993 96.3324 28.993C96.347 28.993 96.3818 28.959 96.4365 28.8912C96.4911 28.8234 96.5363 28.7782 96.5716 28.7555C96.6067 28.7328 96.6366 28.7013 96.6611 28.6607L96.6976 28.637C96.7074 28.6324 96.7281 28.6191 96.76 28.5964L96.7965 28.603C96.8161 28.5894 96.8282 28.5737 96.833 28.5555C96.8382 28.5376 96.8454 28.524 96.8549 28.5149C96.9185 28.5082 96.9579 28.4869 96.974 28.4506C96.9898 28.4142 97.0085 28.3963 97.0303 28.3963C97.0499 28.3963 97.0755 28.3755 97.1074 28.3339C97.139 28.2919 97.1836 28.258 97.2408 28.2321C97.2981 28.2059 97.3409 28.1827 97.3688 28.1624C97.3967 28.1421 97.4536 28.1178 97.539 28.0898C97.6242 28.0615 97.6814 28.0473 97.711 28.0473H97.7329L97.7622 28.054L97.8168 28.0473C97.9022 28.0473 97.9874 28.0695 98.0728 28.1133C98.1579 28.1576 98.1944 28.226 98.1823 28.3186L98.153 28.5288L98.1128 28.6949C98.1079 28.7222 98.0883 28.782 98.0544 28.8746C98.0204 28.9673 98.0032 29.0205 98.0032 29.0341L97.9885 29.0984L98.0032 29.1866L97.996 29.2579C97.996 29.2806 98.0081 29.2918 98.0325 29.2918C98.042 29.2918 98.0688 29.2715 98.1125 29.2306C98.1392 29.2352 98.1645 29.2216 98.189 29.19C98.2131 29.1585 98.2459 29.1257 98.2873 29.0918C98.2873 29.0827 98.3031 29.0744 98.3345 29.0664C98.3658 29.0584 98.4098 29.0317 98.4653 28.9865C98.4751 28.9662 98.5223 28.9227 98.6074 28.8562C98.6922 28.7895 98.7736 28.7382 98.8512 28.7019L98.8731 28.6746C98.9142 28.6362 98.9516 28.6169 98.9858 28.6169C99.02 28.6169 99.037 28.6338 99.037 28.6677C99.037 28.6904 99.031 28.7141 99.0189 28.739C99.0065 28.7638 98.9982 28.7961 98.9933 28.8357C98.9881 28.8749 98.964 28.9321 98.9203 29.0068L98.9056 29.0408C98.8886 29.0792 98.8679 29.1019 98.8438 29.1086C98.8193 29.1153 98.7932 29.1342 98.7655 29.1644C98.7374 29.1951 98.6798 29.224 98.5921 29.2509C98.553 29.3188 98.5228 29.3527 98.501 29.3527L98.4354 29.3254C98.3842 29.3639 98.3586 29.4034 98.3586 29.444C98.2954 29.4939 98.2577 29.5265 98.2456 29.5423L98.1726 29.5356C98.1533 29.5356 98.1432 29.5604 98.1432 29.6101C98.1432 29.6147 98.1182 29.6299 98.0685 29.656C98.0187 29.682 97.9802 29.7052 97.9537 29.7255C97.9273 29.7458 97.87 29.7559 97.7823 29.7559C97.7725 29.7559 97.7579 29.7482 97.7386 29.7322C97.7193 29.7161 97.6906 29.7028 97.6529 29.6916C97.6153 29.6804 97.5891 29.6536 97.5747 29.6117C97.56 29.5701 97.5445 29.5372 97.5273 29.5137C97.5103 29.4897 97.5017 29.4712 97.5017 29.4576L97.5088 29.3898L97.4907 29.3185L97.5235 29.271C97.5088 29.2394 97.5017 29.2178 97.5017 29.2066L97.5382 28.9999C97.5652 28.8506 97.5871 28.7534 97.604 28.7083C97.6092 28.7037 97.6112 28.6904 97.6112 28.6677L97.604 28.583L97.6112 28.5355C97.6112 28.5016 97.5991 28.4837 97.5747 28.4813C97.5505 28.4789 97.5359 28.4735 97.531 28.4644C97.4994 28.4508 97.481 28.4442 97.4763 28.4442C97.4571 28.4442 97.4398 28.4583 97.4252 28.4863C97.4105 28.5147 97.3909 28.54 97.3668 28.5627L97.2753 28.5491V28.5558C97.2753 28.5737 97.2426 28.6089 97.1767 28.661C97.1157 28.6746 97.0631 28.704 97.0194 28.7491C97.0001 28.7491 96.9665 28.7665 96.9187 28.8017C96.8713 28.8367 96.8405 28.8565 96.8259 28.861L96.7962 28.9152L96.7379 28.9321C96.7206 28.9772 96.6806 29.0066 96.6174 29.0202L96.5808 29.0845C96.5294 29.0891 96.4943 29.1134 96.4747 29.1572C96.4555 29.2015 96.4408 29.2234 96.431 29.2234C96.4261 29.2234 96.4184 29.2205 96.4074 29.2151C96.3965 29.2095 96.3862 29.2066 96.3764 29.2066C96.3226 29.2066 96.2936 29.244 96.2887 29.3185C96.2887 29.3276 96.2386 29.3804 96.1388 29.4779C96.0391 29.5754 95.9853 29.6248 95.9778 29.6272C95.9703 29.6296 95.9565 29.6526 95.9358 29.6969C95.9151 29.7407 95.8864 29.7736 95.8498 29.7949C95.8133 29.8166 95.7857 29.8339 95.7676 29.8475C95.7495 29.8611 95.7354 29.8678 95.7256 29.8678C95.6744 29.8678 95.6333 29.8339 95.6014 29.7661C95.5694 29.6982 95.5539 29.6633 95.5539 29.6609L95.5758 29.5896L95.5686 29.5284C95.5686 29.526 95.5838 29.4803 95.614 29.3911C95.6445 29.3017 95.6793 29.2314 95.7181 29.181C95.7572 29.1299 95.7877 29.0469 95.8096 28.9315C95.6997 28.9994 95.6341 29.0333 95.612 29.0333C95.5631 29.0333 95.539 29.0039 95.539 28.9451C95.539 28.8367 95.5769 28.7392 95.6528 28.6535H95.6534Z" fill="#F68C1F"/>
<path opacity="0.94" d="M102.051 29.2232H102.066L102.102 29.2368C102.107 29.2368 102.112 29.2344 102.117 29.2301C102.117 29.1916 102.136 29.1588 102.176 29.1318C102.188 29.0888 102.215 29.0562 102.258 29.0335C102.3 29.0108 102.368 28.9735 102.461 28.9216L102.552 28.8471L102.596 28.8268L102.626 28.7929C102.652 28.7635 102.678 28.7489 102.702 28.7489C102.739 28.7489 102.757 28.7614 102.757 28.7862L102.725 28.8541L102.739 28.966C102.739 29.0066 102.724 29.0429 102.694 29.0744C102.663 29.1059 102.616 29.1524 102.553 29.2135L102.367 29.3967L102.268 29.4443C102.243 29.4579 102.222 29.4737 102.202 29.4918L102.06 29.6037C102.06 29.6352 102.049 29.659 102.027 29.675H101.968L101.939 29.6886C101.922 29.7316 101.872 29.7733 101.789 29.8141L101.738 29.8481C101.721 29.8617 101.705 29.8684 101.69 29.8684L101.588 29.8547L101.519 29.8684C101.5 29.8684 101.473 29.8593 101.44 29.8411C101.407 29.823 101.374 29.8088 101.34 29.7989C101.306 29.7885 101.262 29.7468 101.21 29.6731C101.157 29.6 101.129 29.5519 101.124 29.5292C101.124 29.5201 101.118 29.5049 101.108 29.4833C101.097 29.4619 101.091 29.4488 101.091 29.4443C101.091 29.4397 101.102 29.417 101.124 29.3764V29.3698C101.124 29.3631 101.117 29.3471 101.104 29.3222C101.09 29.2974 101.084 29.267 101.084 29.2306C101.084 29.2103 101.076 29.1842 101.062 29.1527C101.081 29.1348 101.091 29.1211 101.091 29.1121C101.091 29.103 101.087 29.0899 101.08 29.0731C101.073 29.056 101.069 29.0432 101.069 29.0341L101.091 28.868L101.076 28.7833L101.084 28.7019C101.084 28.6543 101.062 28.6306 101.018 28.6306C100.999 28.6306 100.974 28.6431 100.945 28.6679L100.92 28.6746C100.854 28.704 100.808 28.7283 100.782 28.7475C100.755 28.7665 100.727 28.7761 100.698 28.7761C100.683 28.7897 100.656 28.8023 100.614 28.8135L100.585 28.8338C100.576 28.8429 100.556 28.8565 100.527 28.8744C100.527 28.8811 100.481 28.919 100.39 28.9879C100.299 29.057 100.218 29.1219 100.145 29.1828C100.072 29.2437 100.019 29.2774 99.9863 29.283C99.9538 29.2886 99.9371 29.3174 99.9371 29.3692C99.9371 29.3783 99.9156 29.3965 99.8716 29.4234C99.8667 29.4234 99.8414 29.4483 99.7951 29.498C99.7562 29.4707 99.7344 29.4574 99.7295 29.4574C99.6979 29.4574 99.6746 29.4947 99.6599 29.5693C99.6452 29.5986 99.6061 29.6168 99.5429 29.6235C99.538 29.6259 99.5296 29.6427 99.5173 29.6742L99.5026 29.6878H99.4661C99.4609 29.6878 99.4439 29.7009 99.4146 29.7268C99.3853 29.753 99.36 29.7693 99.3375 29.7762C99.3062 29.8374 99.2791 29.8678 99.2573 29.8678C99.2475 29.8678 99.2334 29.8633 99.2153 29.8542C99.1972 29.8451 99.1742 29.8374 99.1477 29.8304C99.1213 29.8235 99.0914 29.796 99.0583 29.7471C99.0255 29.6985 99.0088 29.6574 99.0088 29.6235C99.0088 29.3727 99.0612 29.236 99.1658 29.2133L99.173 29.1997V29.1724C99.173 29.143 99.1871 29.1222 99.215 29.1097C99.2429 29.0974 99.2714 29.0725 99.3007 29.0351C99.3301 28.998 99.3493 28.9769 99.3591 28.9727H99.4065C99.4163 28.9727 99.4212 28.9489 99.4212 28.9013C99.4212 28.8877 99.4272 28.8752 99.4393 28.864C99.4514 28.8527 99.4586 28.8362 99.4612 28.8148C99.4638 28.7932 99.4813 28.7582 99.5144 28.7093C99.5472 28.6607 99.5636 28.6322 99.5636 28.6231L99.5564 28.6095C99.4954 28.6613 99.4517 28.6898 99.425 28.6941C99.3982 28.6984 99.3617 28.7315 99.3154 28.7924L99.257 28.7822C99.1549 28.8525 99.0914 28.8917 99.0669 28.9008C99.0425 28.9099 99.0154 28.9358 98.9864 28.9788C98.9864 28.9924 98.9781 29.0015 98.9608 29.006C98.9435 29.0106 98.9119 29.0287 98.8656 29.0602H98.8438C98.7825 29.0602 98.7523 29.0197 98.7523 28.9382L98.8291 28.7449C98.8507 28.6837 98.9024 28.6324 98.9838 28.5908C99.0655 28.5488 99.1339 28.5085 99.19 28.4703C99.2461 28.4321 99.3022 28.4116 99.3579 28.4092L99.3835 28.3752C99.4661 28.3459 99.5219 28.2997 99.5512 28.2361C99.5805 28.1726 99.6205 28.1413 99.6717 28.1413C99.8054 28.1413 99.9075 28.187 99.978 28.2788C100.048 28.3702 100.083 28.4431 100.083 28.4973L100.091 28.5889C100.091 28.6204 100.083 28.6645 100.069 28.7211C100.04 28.7617 100.025 28.7924 100.025 28.8127C100.025 28.8306 100.037 28.8399 100.062 28.8399C100.076 28.8399 100.096 28.8303 100.12 28.8111C100.144 28.7921 100.172 28.7745 100.202 28.7587C100.232 28.7427 100.25 28.7294 100.255 28.7182C100.28 28.6639 100.322 28.6265 100.383 28.6063C100.444 28.586 100.481 28.5689 100.496 28.5555L100.532 28.5283L100.562 28.4775C100.628 28.4503 100.671 28.4257 100.693 28.403C100.715 28.3803 100.744 28.3656 100.781 28.359C100.817 28.3523 100.859 28.3317 100.905 28.2978L100.959 28.2842L101.011 28.2569C101.016 28.2524 101.03 28.2468 101.054 28.2401C101.079 28.2334 101.114 28.2214 101.162 28.2046C101.209 28.1875 101.241 28.179 101.259 28.179C101.382 28.179 101.48 28.2254 101.552 28.3181C101.624 28.4108 101.66 28.4853 101.66 28.5419L101.653 28.603L101.667 28.6946V28.7083L101.638 28.8947L101.645 28.959C101.645 29.0651 101.621 29.1388 101.572 29.1794C101.56 29.1839 101.554 29.1954 101.554 29.2133V29.2437L101.627 29.3861C101.649 29.436 101.666 29.4606 101.678 29.4606L101.795 29.4301C101.829 29.421 101.858 29.3973 101.88 29.3588C101.899 29.3497 101.933 29.3225 101.982 29.2774C101.996 29.241 102.02 29.2232 102.051 29.2232H102.051Z" fill="#F68C1F"/>
<path opacity="0.94" d="M104.627 29.5351L104.455 29.6742C104.445 29.6651 104.435 29.6606 104.426 29.6606C104.401 29.6606 104.372 29.6809 104.336 29.7217C104.3 29.7626 104.275 29.7829 104.261 29.7829L104.224 29.7762C104.163 29.8192 104.12 29.8441 104.093 29.8507C104.066 29.8574 104.034 29.87 103.996 29.8881C103.958 29.906 103.924 29.9162 103.894 29.9186C103.863 29.921 103.839 29.9303 103.819 29.9474C103.8 29.964 103.752 29.9728 103.676 29.9728L103.618 29.9661C103.586 29.9797 103.565 29.9864 103.556 29.9864C103.536 29.9864 103.515 29.9768 103.494 29.9576C103.472 29.9386 103.448 29.9279 103.423 29.9255C103.397 29.9231 103.37 29.9076 103.344 29.878C103.317 29.8486 103.292 29.828 103.269 29.8168C103.246 29.8056 103.227 29.7896 103.213 29.7693L103.161 29.7287C103.12 29.7014 103.08 29.6518 103.041 29.5794C103.002 29.507 102.982 29.4507 102.982 29.4098V29.3962L102.989 29.3318L102.982 29.2573C102.992 29.2483 103.004 29.2293 103.019 29.1996V29.0912L103.106 28.8199C103.112 28.8087 103.102 28.7937 103.077 28.7758C103.053 28.8097 103.029 28.83 103.004 28.837C102.979 28.8437 102.963 28.8597 102.954 28.8845C102.946 28.9094 102.932 28.9219 102.912 28.9219L102.868 28.9083C102.863 28.9128 102.852 28.9361 102.835 28.978C102.818 29.0197 102.788 29.0405 102.747 29.0405C102.703 29.0405 102.681 29.0245 102.681 28.9929L102.688 28.9318L102.666 28.8471C102.666 28.8292 102.685 28.7935 102.724 28.7406C102.763 28.6874 102.799 28.657 102.832 28.6487C102.865 28.641 102.893 28.6196 102.916 28.5846C102.939 28.5494 102.99 28.5072 103.068 28.4572C103.112 28.4482 103.15 28.4188 103.182 28.3691C103.215 28.3443 103.26 28.324 103.315 28.308C103.37 28.2919 103.411 28.269 103.439 28.2385C103.468 28.2078 103.55 28.1603 103.688 28.0962C103.826 28.0315 103.926 27.9995 103.99 27.9995C104.009 27.9995 104.036 27.9944 104.07 27.984C104.104 27.9741 104.136 27.965 104.165 27.9568C104.195 27.949 104.225 27.9365 104.257 27.9197C104.288 27.9026 104.314 27.894 104.334 27.894L104.44 27.9279C104.518 27.9482 104.565 27.9629 104.582 27.972C104.587 27.9765 104.612 27.9861 104.657 28.0008C104.702 28.0155 104.749 28.0353 104.796 28.0601C104.844 28.085 104.867 28.1314 104.867 28.1993C104.826 28.2559 104.805 28.2863 104.805 28.2909C104.805 28.2999 104.833 28.3136 104.889 28.3315C104.909 28.3654 104.938 28.4094 104.977 28.4636L105.017 28.5822L105.025 28.8602L105.017 28.8875C104.991 28.9102 104.977 28.9248 104.977 28.9315L104.988 28.9994L104.959 29.0942C104.952 29.1235 104.939 29.1428 104.922 29.1518C104.905 29.1609 104.894 29.1721 104.889 29.1858L104.868 29.213C104.863 29.2197 104.852 29.2397 104.837 29.2723C104.821 29.3051 104.803 29.3308 104.784 29.3487C104.764 29.3666 104.752 29.3882 104.747 29.413C104.742 29.4379 104.73 29.456 104.71 29.4672C104.691 29.4785 104.677 29.4905 104.668 29.5028C104.66 29.5153 104.646 29.526 104.626 29.5351H104.627ZM103.492 29.6232L103.507 29.7012L103.514 29.7079H103.572L103.59 29.7145C103.639 29.7236 103.675 29.7282 103.699 29.7282C103.775 29.7282 103.835 29.7108 103.88 29.6758C103.925 29.6406 103.961 29.6232 103.987 29.6232C104.014 29.6232 104.036 29.6064 104.055 29.5725C104.073 29.5385 104.085 29.5217 104.089 29.5217H104.14L104.155 29.515C104.155 29.4632 104.18 29.4258 104.229 29.4031C104.279 29.3804 104.315 29.3508 104.335 29.3131C104.356 29.276 104.379 29.2477 104.406 29.2288C104.433 29.2095 104.451 29.1839 104.461 29.1524L104.49 29.1118C104.499 29.1027 104.505 29.0856 104.505 29.061L104.574 28.939C104.588 28.8824 104.596 28.8383 104.596 28.8068C104.596 28.7593 104.569 28.7222 104.517 28.6949C104.465 28.6677 104.439 28.6145 104.439 28.5355C104.439 28.4837 104.468 28.4356 104.525 28.3913C104.582 28.3475 104.61 28.3208 104.61 28.3117C104.61 28.2981 104.603 28.2914 104.589 28.2914C104.581 28.2914 104.554 28.3005 104.505 28.3186C104.488 28.3501 104.402 28.3921 104.246 28.4441C104.195 28.4214 104.168 28.4102 104.163 28.4102C104.148 28.4102 104.133 28.4239 104.119 28.4508C104.105 28.4778 104.09 28.4973 104.075 28.5085H104.028C104.023 28.5085 104.007 28.5232 103.981 28.5526C103.954 28.5819 103.92 28.5966 103.879 28.5966L103.835 28.6372C103.838 28.6736 103.813 28.7107 103.762 28.7491L103.722 28.7932C103.698 28.8204 103.666 28.8519 103.628 28.888L103.562 29.0405C103.535 29.0992 103.522 29.1433 103.522 29.1727C103.515 29.1863 103.498 29.2005 103.472 29.2151C103.447 29.2298 103.434 29.2483 103.434 29.271C103.434 29.2755 103.442 29.287 103.46 29.3049C103.477 29.3228 103.485 29.3364 103.485 29.3455L103.471 29.3895L103.456 29.515L103.492 29.6235L103.492 29.6232Z" fill="#F68C1F"/>
<path opacity="0.94" d="M105.781 29.0843V29.0605C105.781 29.029 105.784 29.0039 105.788 28.986C105.774 28.9497 105.767 28.9171 105.767 28.8877C105.767 28.8832 105.779 28.8514 105.803 28.7929L105.836 28.6877C105.853 28.6471 105.863 28.6257 105.865 28.6233C105.85 28.587 105.843 28.5667 105.843 28.5622C105.843 28.5104 105.859 28.4674 105.891 28.4335C105.922 28.3996 105.949 28.352 105.971 28.2911L106.044 28.0844L106.164 27.8131C106.167 27.8064 106.178 27.7883 106.199 27.7589C106.219 27.7295 106.237 27.7041 106.25 27.6828C106.263 27.6611 106.282 27.6302 106.307 27.5893L106.343 27.5826C106.353 27.5735 106.358 27.5647 106.358 27.5554C106.358 27.5508 106.353 27.5327 106.343 27.5012L106.471 27.3046L106.548 27.1588C106.572 27.1204 106.599 27.0955 106.628 27.0843C106.676 27.0007 106.719 26.9497 106.755 26.9318C106.77 26.8888 106.797 26.8426 106.836 26.7927L106.905 26.786C106.917 26.7545 106.929 26.7307 106.942 26.7147L106.949 26.6469C106.949 26.6605 106.955 26.6565 106.967 26.6348C106.979 26.6135 106.997 26.5734 107.022 26.5147L107.12 26.4095L107.149 26.3619C107.162 26.3459 107.181 26.3154 107.208 26.2703C107.244 26.2567 107.275 26.2319 107.299 26.1958L107.376 26.1381C107.371 26.1133 107.4 26.0577 107.463 25.972C107.505 25.956 107.543 25.9357 107.577 25.9109L107.628 25.8972C107.628 25.8182 107.658 25.764 107.719 25.7346L107.763 25.7074C107.802 25.6895 107.824 25.6801 107.829 25.6801L107.854 25.6734C107.884 25.6644 107.918 25.6598 107.956 25.6598C108.046 25.6598 108.128 25.6908 108.201 25.753C108.274 25.8153 108.311 25.886 108.311 25.9651C108.311 25.9966 108.293 26.0294 108.256 26.0633L108.241 26.0906C108.207 26.215 108.183 26.277 108.168 26.277C108.159 26.277 108.145 26.2837 108.128 26.2973C108.123 26.3718 108.118 26.4137 108.113 26.4228C108.07 26.4295 108.048 26.4805 108.048 26.5753C108.043 26.5889 108.025 26.6121 107.995 26.645C107.964 26.6776 107.941 26.7227 107.923 26.7807C107.906 26.8381 107.888 26.8669 107.869 26.8669H107.828L107.839 26.9177C107.839 26.9492 107.823 26.9801 107.79 27.0111C107.757 27.0413 107.737 27.0736 107.73 27.1075C107.723 27.1415 107.693 27.182 107.642 27.2296L107.606 27.2838C107.591 27.3065 107.572 27.3303 107.547 27.3551C107.523 27.3799 107.502 27.4184 107.485 27.4705L107.39 27.6331C107.324 27.7439 107.275 27.7968 107.24 27.7925C107.218 27.8807 107.204 27.9317 107.197 27.945C107.189 27.9584 107.172 27.9712 107.145 27.9824C107.119 27.9936 107.098 28.0134 107.083 28.042C107.069 28.07 107.053 28.0911 107.036 28.1045L106.97 28.23C106.931 28.246 106.903 28.2751 106.886 28.3181C106.847 28.3272 106.823 28.3576 106.813 28.4097C106.803 28.4188 106.791 28.4391 106.776 28.4709L106.649 28.5894C106.583 28.6324 106.548 28.6816 106.543 28.7368C106.538 28.7924 106.506 28.8202 106.448 28.8202C106.407 28.8202 106.346 28.8033 106.265 28.7694H106.258C106.251 28.8009 106.234 28.8362 106.207 28.8746L106.222 28.9662C106.222 28.9775 106.202 29.0488 106.163 29.1799C106.183 29.2138 106.193 29.2376 106.193 29.2512L106.186 29.3257L106.204 29.4173C106.216 29.4918 106.245 29.5292 106.291 29.5292L106.379 29.5428C106.384 29.5428 106.414 29.526 106.47 29.4921L106.605 29.4242C106.61 29.4242 106.612 29.4267 106.612 29.4309C106.637 29.44 106.656 29.4445 106.671 29.4445C106.695 29.4445 106.707 29.4267 106.707 29.3903V29.3463C106.722 29.3236 106.739 29.3099 106.76 29.3057C106.781 29.3011 106.8 29.291 106.817 29.2752C106.834 29.2592 106.847 29.2515 106.857 29.2515H106.894C106.93 29.2515 106.948 29.2119 106.948 29.1329C106.958 29.1283 106.97 29.1193 106.984 29.1056H107.028C107.047 29.1056 107.069 29.0835 107.092 29.0397C107.115 28.9954 107.132 28.9689 107.141 28.9598C107.185 28.9553 107.216 28.9486 107.233 28.9395C107.311 28.8084 107.37 28.743 107.411 28.743H107.433C107.474 28.7067 107.497 28.6746 107.501 28.6466C107.504 28.6183 107.516 28.5996 107.537 28.5905C107.558 28.5814 107.577 28.5702 107.593 28.5566C107.61 28.543 107.621 28.5363 107.626 28.5363C107.663 28.5363 107.681 28.5488 107.681 28.5737L107.67 28.6685L107.696 28.7702C107.696 28.7793 107.685 28.7969 107.665 28.8228C107.644 28.8487 107.634 28.8776 107.634 28.9091C107.634 28.9745 107.621 29.0098 107.597 29.0143C107.573 29.0189 107.553 29.0341 107.537 29.0603C107.521 29.0862 107.495 29.1099 107.459 29.1313C107.422 29.1529 107.394 29.1839 107.375 29.2248L107.313 29.2384L107.276 29.2587C107.247 29.3289 107.216 29.3716 107.183 29.3874C107.15 29.4031 107.109 29.4507 107.061 29.5297C107.054 29.5297 107.05 29.5321 107.05 29.5364L106.992 29.5297C106.97 29.5661 106.948 29.5874 106.926 29.5941C106.904 29.6008 106.886 29.6139 106.871 29.6331C106.857 29.6523 106.831 29.6689 106.793 29.6825C106.755 29.6961 106.732 29.7119 106.722 29.73C106.712 29.7482 106.697 29.7581 106.678 29.7605C106.659 29.7629 106.64 29.7712 106.623 29.7861C106.607 29.8008 106.592 29.808 106.58 29.808C106.575 29.808 106.558 29.8056 106.529 29.8013H106.514C106.473 29.8286 106.439 29.8419 106.412 29.8419C106.38 29.8419 106.357 29.8465 106.343 29.8555C106.328 29.8465 106.306 29.8395 106.276 29.8352C106.245 29.8307 106.21 29.8192 106.171 29.8013C106.13 29.8104 106.105 29.8149 106.095 29.8149C106.053 29.8149 106.001 29.777 105.938 29.7012C105.875 29.6256 105.843 29.5514 105.843 29.4793C105.843 29.4769 105.829 29.4595 105.801 29.4269C105.773 29.3941 105.759 29.3583 105.759 29.3201V29.2862L105.766 29.2456V29.1812L105.773 29.1609C105.81 29.1564 105.828 29.1518 105.828 29.1473L105.781 29.0862L105.781 29.0843ZM106.522 28.1859L106.599 28.1453C106.609 28.109 106.64 28.0655 106.694 28.015C106.748 27.964 106.785 27.9386 106.807 27.9386H106.837C106.837 27.9226 106.84 27.9071 106.848 27.8911C106.855 27.8751 106.858 27.8537 106.858 27.8267C106.858 27.8131 106.891 27.776 106.957 27.7148L106.986 27.6537C107.008 27.5949 107.063 27.5463 107.151 27.5079C107.185 27.4424 107.21 27.4096 107.227 27.4096L107.257 27.4029C107.267 27.369 107.286 27.3385 107.315 27.3113L107.33 27.291V27.2368C107.33 27.2323 107.346 27.2136 107.379 27.181C107.412 27.1481 107.436 27.1177 107.45 27.0891C107.465 27.0611 107.485 27.0389 107.511 27.0231C107.536 27.0074 107.554 26.9791 107.564 26.9385L107.622 26.9318C107.622 26.9024 107.625 26.8832 107.629 26.8741L107.636 26.8402C107.648 26.813 107.691 26.7419 107.764 26.6266L107.822 26.5011C107.822 26.4874 107.833 26.4711 107.853 26.4516C107.874 26.4327 107.884 26.4049 107.884 26.3686L107.914 26.2567C107.914 26.2049 107.904 26.1787 107.884 26.1787C107.86 26.1947 107.837 26.206 107.817 26.2126C107.796 26.2193 107.776 26.2602 107.757 26.3347C107.683 26.3507 107.642 26.3827 107.631 26.4311C107.62 26.48 107.589 26.5211 107.541 26.555L107.515 26.5956C107.51 26.6204 107.487 26.6463 107.446 26.6736C107.405 26.7008 107.366 26.747 107.329 26.8127C107.208 26.9687 107.141 27.0523 107.128 27.0635L107.092 27.1041L107.037 27.0974C107.047 27.1337 107.052 27.154 107.052 27.1585C107.052 27.1722 107.045 27.1852 107.03 27.1975C107.015 27.2101 107.005 27.2253 106.997 27.2435C106.99 27.2616 106.975 27.2825 106.954 27.306C106.932 27.33 106.912 27.3682 106.894 27.4213C106.875 27.4745 106.859 27.5054 106.844 27.5148L106.793 27.5081C106.761 27.526 106.745 27.5444 106.745 27.5623L106.756 27.6099C106.756 27.6189 106.75 27.6296 106.737 27.6422C106.723 27.6545 106.71 27.6788 106.698 27.7148C106.686 27.7509 106.655 27.8059 106.607 27.8793C106.558 27.9525 106.52 28.0305 106.492 28.113C106.464 28.1958 106.437 28.2481 106.41 28.2708C106.415 28.2754 106.422 28.2775 106.432 28.2775C106.463 28.2775 106.494 28.2471 106.523 28.1859H106.522Z" fill="#F68C1F"/>
<path opacity="0.94" d="M109.314 29.5351L109.143 29.6742C109.133 29.6651 109.123 29.6606 109.113 29.6606C109.089 29.6606 109.059 29.6809 109.024 29.7217C108.988 29.7626 108.963 29.7829 108.949 29.7829L108.912 29.7762C108.851 29.8192 108.807 29.8441 108.781 29.8507C108.754 29.8574 108.722 29.87 108.684 29.8881C108.646 29.906 108.612 29.9162 108.582 29.9186C108.551 29.921 108.526 29.9303 108.507 29.9474C108.487 29.964 108.44 29.9728 108.364 29.9728L108.306 29.9661C108.274 29.9797 108.253 29.9864 108.244 29.9864C108.224 29.9864 108.203 29.9768 108.181 29.9576C108.159 29.9386 108.136 29.9279 108.11 29.9255C108.085 29.9231 108.058 29.9076 108.032 29.878C108.005 29.8486 107.98 29.828 107.957 29.8168C107.934 29.8056 107.915 29.7896 107.9 29.7693L107.849 29.7287C107.807 29.7014 107.767 29.6518 107.728 29.5794C107.69 29.507 107.67 29.4507 107.67 29.4098V29.3962L107.677 29.3318L107.67 29.2573C107.68 29.2483 107.692 29.2293 107.707 29.1996V29.0912L107.794 28.8199C107.799 28.8087 107.789 28.7937 107.765 28.7758C107.741 28.8097 107.716 28.83 107.692 28.837C107.667 28.8437 107.65 28.8597 107.642 28.8845C107.634 28.9094 107.619 28.9219 107.6 28.9219L107.556 28.9083C107.551 28.9128 107.54 28.9361 107.523 28.978C107.505 29.0197 107.476 29.0405 107.434 29.0405C107.39 29.0405 107.368 29.0245 107.368 28.9929L107.376 28.9318L107.354 28.8471C107.354 28.8292 107.373 28.7935 107.412 28.7406C107.451 28.6874 107.487 28.657 107.52 28.6487C107.553 28.641 107.581 28.6196 107.604 28.5846C107.627 28.5494 107.678 28.5072 107.756 28.4572C107.799 28.4482 107.837 28.4188 107.869 28.3691C107.903 28.3443 107.948 28.324 108.003 28.308C108.058 28.2919 108.099 28.269 108.127 28.2385C108.155 28.2078 108.238 28.1603 108.376 28.0962C108.514 28.0315 108.614 27.9995 108.678 27.9995C108.697 27.9995 108.724 27.9944 108.758 27.984C108.792 27.9741 108.824 27.965 108.853 27.9568C108.882 27.949 108.913 27.9365 108.945 27.9197C108.976 27.9026 109.002 27.894 109.021 27.894L109.127 27.9279C109.205 27.9482 109.253 27.9629 109.27 27.972C109.275 27.9765 109.3 27.9861 109.345 28.0008C109.39 28.0155 109.436 28.0353 109.484 28.0601C109.531 28.085 109.555 28.1314 109.555 28.1993C109.514 28.2559 109.493 28.2863 109.493 28.2909C109.493 28.2999 109.521 28.3136 109.577 28.3315C109.596 28.3654 109.626 28.4094 109.665 28.4636L109.705 28.5822L109.712 28.8602L109.705 28.8875C109.678 28.9102 109.665 28.9248 109.665 28.9315L109.676 28.9994L109.646 29.0942C109.639 29.1235 109.627 29.1428 109.61 29.1518C109.593 29.1609 109.582 29.1721 109.577 29.1858L109.555 29.213C109.55 29.2197 109.54 29.2397 109.524 29.2723C109.508 29.3051 109.491 29.3308 109.471 29.3487C109.452 29.3666 109.44 29.3882 109.435 29.413C109.43 29.4379 109.418 29.456 109.398 29.4672C109.379 29.4785 109.365 29.4905 109.356 29.5028C109.347 29.5153 109.334 29.526 109.314 29.5351H109.314ZM108.18 29.6232L108.195 29.7012L108.202 29.7079H108.26L108.278 29.7145C108.327 29.7236 108.363 29.7282 108.387 29.7282C108.463 29.7282 108.523 29.7108 108.567 29.6758C108.612 29.6406 108.648 29.6232 108.675 29.6232C108.702 29.6232 108.724 29.6064 108.742 29.5725C108.76 29.5385 108.772 29.5217 108.777 29.5217H108.828L108.843 29.515C108.843 29.4632 108.867 29.4258 108.917 29.4031C108.967 29.3804 109.002 29.3508 109.023 29.3131C109.043 29.276 109.067 29.2477 109.094 29.2288C109.121 29.2095 109.139 29.1839 109.148 29.1524L109.178 29.1118C109.187 29.1027 109.192 29.0856 109.192 29.061L109.261 28.939C109.276 28.8824 109.283 28.8383 109.283 28.8068C109.283 28.7593 109.257 28.7222 109.205 28.6949C109.153 28.6677 109.127 28.6145 109.127 28.5355C109.127 28.4837 109.156 28.4356 109.213 28.3913C109.27 28.3475 109.298 28.3208 109.298 28.3117C109.298 28.2981 109.291 28.2914 109.276 28.2914C109.269 28.2914 109.241 28.3005 109.193 28.3186C109.175 28.3501 109.089 28.3921 108.934 28.4441C108.883 28.4214 108.855 28.4102 108.85 28.4102C108.836 28.4102 108.821 28.4239 108.807 28.4508C108.792 28.4778 108.777 28.4973 108.763 28.5085H108.716C108.711 28.5085 108.695 28.5232 108.668 28.5526C108.642 28.5819 108.608 28.5966 108.567 28.5966L108.523 28.6372C108.526 28.6736 108.501 28.7107 108.45 28.7491L108.41 28.7932C108.385 28.8204 108.354 28.8519 108.315 28.888L108.249 29.0405C108.223 29.0992 108.209 29.1433 108.209 29.1727C108.202 29.1863 108.186 29.2005 108.16 29.2151C108.134 29.2298 108.122 29.2483 108.122 29.271C108.122 29.2755 108.13 29.287 108.147 29.3049C108.164 29.3228 108.173 29.3364 108.173 29.3455L108.158 29.3895L108.144 29.515L108.18 29.6235L108.18 29.6232Z" fill="#F68C1F"/>
<path opacity="0.94" d="M109.94 31.9423L109.881 31.9797C109.857 31.9933 109.832 32 109.805 32C109.744 32 109.685 31.9626 109.628 31.8881C109.571 31.8136 109.542 31.7367 109.542 31.6576C109.542 31.5153 109.557 31.4141 109.588 31.354C109.618 31.2942 109.636 31.2496 109.64 31.2202C109.64 31.2178 109.667 31.162 109.719 31.0525C109.771 30.9427 109.82 30.8597 109.867 30.8031C109.913 30.7464 109.952 30.6936 109.984 30.6436L109.998 30.6164C110.035 30.5622 110.07 30.5248 110.104 30.5045C110.104 30.4909 110.151 30.4439 110.245 30.3638C110.338 30.2836 110.426 30.2153 110.509 30.1587L110.546 30.1111C110.604 30.0772 110.638 30.0604 110.648 30.0604L110.859 30.0062C110.879 29.9883 110.926 29.953 111.002 29.9009H111.031L111.13 29.8737C111.184 29.851 111.267 29.8302 111.379 29.8112C111.492 29.792 111.556 29.7693 111.571 29.7434C111.587 29.7172 111.6 29.6932 111.611 29.6705C111.621 29.6478 111.648 29.6002 111.69 29.5281C111.7 29.4897 111.708 29.4592 111.716 29.4365C111.723 29.4138 111.731 29.4002 111.74 29.3959C111.748 29.3914 111.762 29.3692 111.782 29.33C111.801 29.2905 111.821 29.2571 111.84 29.2298C111.845 29.2298 111.847 29.2274 111.847 29.2232L111.825 29.1655C111.845 29.1113 111.865 29.0779 111.886 29.0656C111.906 29.053 111.917 29.0445 111.917 29.04L111.891 28.9788L111.953 28.8533C111.953 28.8442 111.948 28.8397 111.938 28.8397C111.81 28.9233 111.734 28.9652 111.712 28.9652C111.7 28.9812 111.673 29.0082 111.632 29.0466C111.591 29.0603 111.563 29.084 111.548 29.1179L111.519 29.1246L111.497 29.1585C111.497 29.1631 111.489 29.1687 111.471 29.1754C111.454 29.182 111.421 29.2002 111.37 29.2296L111.326 29.2229C111.316 29.2229 111.304 29.2456 111.29 29.2907C111.248 29.3359 111.209 29.3636 111.171 29.3738C111.133 29.3842 111.11 29.3959 111.1 29.4096L111.071 29.4435L111.034 29.4368C110.983 29.4368 110.958 29.4547 110.958 29.491C110.958 29.5113 110.943 29.5351 110.914 29.5623C110.895 29.5623 110.87 29.569 110.841 29.5826H110.786C110.762 29.6326 110.719 29.663 110.655 29.6742L110.549 29.742L110.488 29.7623C110.458 29.776 110.429 29.7923 110.4 29.8117C110.371 29.8307 110.321 29.8427 110.25 29.8473C110.216 29.8294 110.164 29.8117 110.094 29.7947C110.023 29.7781 109.973 29.6675 109.944 29.4643H109.937C109.917 29.4643 109.896 29.471 109.873 29.4846C109.849 29.4982 109.833 29.5049 109.823 29.5049C109.765 29.5049 109.736 29.4822 109.736 29.4371C109.736 29.3353 109.777 29.2686 109.86 29.237L109.951 29.1318L110.185 28.9182C110.348 28.7668 110.457 28.6695 110.514 28.6266C110.57 28.5836 110.631 28.5419 110.697 28.501L110.883 28.3857C110.947 28.3472 110.986 28.3264 111 28.3229C111.015 28.3197 111.03 28.3122 111.046 28.301C111.062 28.2898 111.106 28.273 111.18 28.2503L111.246 28.223C111.383 28.18 111.47 28.1587 111.509 28.1587L111.561 28.1653C111.587 28.1653 111.613 28.1563 111.637 28.1381C111.672 28.1381 111.724 28.1133 111.795 28.0636L111.927 28.0297C111.963 28.0185 111.994 28.0129 112.018 28.0129H112.087C112.139 28.0129 112.172 28.0502 112.188 28.1248C112.204 28.1993 112.218 28.2366 112.23 28.2366C112.235 28.2366 112.249 28.2198 112.273 28.1859L112.325 28.152C112.361 28.1293 112.384 28.1181 112.394 28.1181C112.452 28.1181 112.489 28.1408 112.504 28.1859V28.1926L112.518 28.2094C112.54 28.3178 112.551 28.3846 112.551 28.4094C112.551 28.5179 112.526 28.6028 112.476 28.6637C112.426 28.7248 112.396 28.7678 112.386 28.7924C112.338 28.9756 112.289 29.1134 112.24 29.2061C112.228 29.2309 112.199 29.2966 112.153 29.4026L112.116 29.4365C112.106 29.4411 112.101 29.4477 112.101 29.4568L112.109 29.5044C112.067 29.5655 112.047 29.6139 112.047 29.6502C112.047 29.6705 112.027 29.7121 111.988 29.7757C111.993 29.7802 112.014 29.7923 112.052 29.8115C112.09 29.8304 112.132 29.8668 112.18 29.9199C112.227 29.9728 112.251 30.0131 112.251 30.0401C112.251 30.0468 112.238 30.0908 112.211 30.1723C112.123 30.2334 112.049 30.2639 111.988 30.2639C111.963 30.2639 111.928 30.2492 111.882 30.2198L111.86 30.2265V30.2129C111.828 30.2062 111.803 30.1976 111.785 30.1872C111.767 30.1773 111.749 30.172 111.732 30.172C111.712 30.172 111.702 30.1811 111.702 30.1992C111.702 30.2083 111.705 30.2171 111.71 30.2265C111.695 30.2377 111.675 30.2545 111.651 30.2772C111.651 30.2839 111.634 30.3173 111.6 30.3771C111.565 30.4372 111.535 30.4772 111.508 30.4975C111.454 30.4999 111.418 30.5371 111.399 30.6094C111.379 30.6818 111.356 30.728 111.329 30.7486L111.293 30.735C111.21 30.8885 111.127 30.9993 111.045 31.0672C110.993 31.0784 110.967 31.0869 110.966 31.0928C110.965 31.0984 110.963 31.1131 110.959 31.1366C110.956 31.1606 110.926 31.1978 110.872 31.2488C110.817 31.2992 110.784 31.3249 110.775 31.3249L110.738 31.3316L110.716 31.3519C110.719 31.397 110.654 31.4694 110.523 31.5687C110.452 31.605 110.414 31.6299 110.409 31.6432C110.39 31.6862 110.318 31.7372 110.194 31.7957L110.125 31.8534C110.093 31.8806 110.061 31.8999 110.03 31.9111L109.939 31.9415L109.94 31.9423ZM111.257 30.1998L111.148 30.2134C111.121 30.1955 111.1 30.1862 111.086 30.1862C111.076 30.1862 111.069 30.1928 111.064 30.2065C111.035 30.2428 110.97 30.2732 110.87 30.2981C110.77 30.3229 110.703 30.3483 110.668 30.3744C110.632 30.4003 110.602 30.4142 110.578 30.4166C110.554 30.419 110.542 30.4233 110.542 30.4302C110.517 30.4481 110.499 30.4642 110.487 30.4778C110.463 30.4869 110.438 30.501 110.414 30.52C110.39 30.5392 110.364 30.5512 110.337 30.5558C110.294 30.6439 110.262 30.688 110.242 30.688C110.237 30.688 110.225 30.6856 110.206 30.6813H110.199C110.167 30.74 110.143 30.7739 110.126 30.783C110.108 30.7921 110.094 30.8049 110.082 30.822C110.069 30.8386 110.046 30.8575 110.011 30.8778C109.975 30.8981 109.952 30.9326 109.94 30.9812C109.927 31.0301 109.912 31.0626 109.894 31.0797C109.876 31.0963 109.864 31.1345 109.859 31.1932L109.837 31.2408C109.83 31.2544 109.82 31.2931 109.806 31.3577C109.793 31.4218 109.787 31.4552 109.787 31.4576C109.787 31.4891 109.801 31.5177 109.83 31.5423C109.84 31.5311 109.86 31.523 109.892 31.5185L110.108 31.4371C110.115 31.4325 110.142 31.4117 110.188 31.3743C110.234 31.3372 110.275 31.3129 110.31 31.3017C110.346 31.2904 110.378 31.2701 110.407 31.2405C110.426 31.2133 110.45 31.1906 110.478 31.1727C110.506 31.1548 110.522 31.1321 110.528 31.1048C110.583 31.0597 110.635 31.0172 110.681 30.9777C110.727 30.9382 110.757 30.9053 110.77 30.8792C110.784 30.8533 110.805 30.8311 110.834 30.8132L110.849 30.7691C110.854 30.7667 110.864 30.7638 110.88 30.7609C110.896 30.7571 110.922 30.7208 110.958 30.6506L111.057 30.4981C111.115 30.4439 111.163 30.375 111.199 30.2914L111.251 30.2508C111.26 30.2462 111.265 30.2361 111.265 30.2203L111.258 30.2L111.257 30.1998ZM111.192 29.1182L111.236 29.0605C111.251 29.0426 111.276 29.029 111.311 29.0199C111.346 29.0108 111.375 28.9919 111.397 28.9622C111.455 28.8853 111.525 28.829 111.605 28.7927L111.642 28.7689C111.678 28.7035 111.711 28.6677 111.74 28.6621C111.769 28.6565 111.795 28.6362 111.817 28.6009C111.839 28.5659 111.85 28.5374 111.85 28.5147C111.85 28.5056 111.842 28.501 111.828 28.501C111.794 28.501 111.764 28.5101 111.738 28.5283C111.713 28.5464 111.695 28.5555 111.685 28.5555L111.612 28.5488C111.569 28.5715 111.508 28.5988 111.43 28.6303L111.364 28.681C111.335 28.6989 111.308 28.7104 111.285 28.7149C111.262 28.7195 111.245 28.7336 111.232 28.7571C111.22 28.7812 111.204 28.7929 111.185 28.7929L111.155 28.8065C111.146 28.8156 111.118 28.8202 111.072 28.8202C111.047 28.8338 111.022 28.853 110.997 28.8779C110.971 28.9027 110.956 28.9152 110.951 28.9152C110.895 28.9719 110.847 29.0068 110.807 29.0205C110.767 29.0341 110.741 29.0533 110.729 29.0781C110.682 29.0894 110.643 29.115 110.612 29.1545C110.58 29.1938 110.551 29.221 110.526 29.236C110.5 29.2507 110.478 29.2691 110.459 29.2918L110.422 29.319C110.407 29.3281 110.387 29.358 110.362 29.4088C110.336 29.4598 110.323 29.4953 110.323 29.5156C110.323 29.5292 110.332 29.5359 110.349 29.5359C110.373 29.5359 110.419 29.5193 110.486 29.4867C110.553 29.4539 110.596 29.4283 110.615 29.4104C110.635 29.3925 110.648 29.3831 110.656 29.3831L110.794 29.3898C110.809 29.3604 110.834 29.3412 110.869 29.3321C110.905 29.323 110.932 29.3041 110.951 29.2744C110.971 29.2451 111.026 29.2133 111.116 29.1796L111.156 29.1185H111.192V29.1182Z" fill="#F68C1F"/>
<path opacity="0.94" d="M112.815 28.7147L112.873 28.6671H112.895C112.912 28.6671 112.938 28.6503 112.972 28.6164L113.009 28.6028C113.057 28.5349 113.1 28.4954 113.136 28.4842L113.195 28.4436C113.205 28.4345 113.219 28.4268 113.237 28.4198C113.256 28.4129 113.285 28.391 113.325 28.3539C113.365 28.3162 113.398 28.2978 113.422 28.2978C113.446 28.2978 113.466 28.3002 113.48 28.3045C113.495 28.2772 113.524 28.2508 113.568 28.2249C113.612 28.1987 113.647 28.1677 113.674 28.1314L113.722 28.1111C113.761 28.0932 113.795 28.07 113.825 28.0417C113.856 28.0134 113.896 27.9992 113.944 27.9992C114.015 27.9992 114.089 28.0326 114.165 28.0991C114.242 28.1659 114.28 28.2297 114.28 28.2909L114.218 28.5552C114.177 28.7497 114.131 28.8511 114.08 28.8605L114.065 28.9318C114.031 28.9545 114.014 28.9724 114.014 28.986L114.036 29.0675C114.036 29.0787 114.022 29.0955 113.995 29.1182C113.99 29.1182 113.988 29.1249 113.988 29.1385V29.2776C113.988 29.3025 113.971 29.3228 113.937 29.3388C113.942 29.3433 113.949 29.3479 113.959 29.3524C113.974 29.3388 114.006 29.3321 114.058 29.3321L114.116 29.3388L114.196 29.2643C114.213 29.2597 114.237 29.2491 114.267 29.232C114.297 29.2154 114.349 29.193 114.422 29.166L114.9 28.8268C114.965 28.7657 115.015 28.7352 115.049 28.7352C115.086 28.7352 115.104 28.7566 115.104 28.7996C115.104 28.8495 115.093 28.8907 115.073 28.9235C115.052 28.9561 115.033 28.9959 115.016 29.0418C114.999 29.0883 114.979 29.1206 114.956 29.1385C114.933 29.1564 114.914 29.1764 114.9 29.1978C114.885 29.2194 114.846 29.2504 114.781 29.2913C114.716 29.3318 114.662 29.3732 114.617 29.4149C114.572 29.4568 114.535 29.487 114.505 29.5049L114.349 29.6101L114.327 29.644C114.322 29.6486 114.299 29.6582 114.259 29.6726C114.219 29.6876 114.183 29.706 114.152 29.7287L114.086 29.7626C114.071 29.7717 114.047 29.7773 114.014 29.7794C113.982 29.7816 113.953 29.7947 113.929 29.8184C113.904 29.8419 113.885 29.8539 113.87 29.8539L113.816 29.8473L113.743 29.8676C113.701 29.8676 113.651 29.8443 113.591 29.7981C113.532 29.7517 113.502 29.7025 113.502 29.6504V29.6301L113.509 29.5826C113.509 29.5735 113.502 29.5503 113.487 29.5132C113.472 29.4755 113.465 29.4547 113.465 29.4504L113.472 29.4029L113.465 29.3826C113.465 29.3214 113.47 29.2832 113.48 29.2672C113.49 29.2512 113.497 29.2293 113.502 29.2013C113.507 29.1729 113.511 29.1497 113.516 29.1316L113.534 29.0469C113.544 29.0197 113.556 29.0018 113.571 28.9927C113.576 28.9748 113.586 28.9441 113.6 28.9011L113.615 28.8399L113.652 28.7924C113.671 28.7745 113.683 28.7499 113.686 28.7198C113.69 28.689 113.703 28.657 113.725 28.6231C113.746 28.5892 113.757 28.5689 113.757 28.5619C113.757 28.5347 113.743 28.5213 113.714 28.5213C113.704 28.5213 113.673 28.5392 113.622 28.5755L113.557 28.5552C113.551 28.5552 113.539 28.5665 113.516 28.5892C113.516 28.5982 113.505 28.6052 113.484 28.6095C113.462 28.6137 113.441 28.6308 113.421 28.6602L113.392 28.6669L113.345 28.6466H113.33C113.306 28.6466 113.291 28.6714 113.286 28.7211C113.259 28.7574 113.224 28.7812 113.18 28.7924L113.1 28.8127C113.073 28.8218 113.054 28.8421 113.042 28.8738C113.029 28.9054 113.005 28.9345 112.969 28.9601C112.932 28.9863 112.908 28.9991 112.895 28.9991C112.827 28.9991 112.793 28.9641 112.793 28.8939L112.823 28.7344L112.816 28.7141L112.815 28.7147ZM114.392 27.0194L114.37 26.8872V26.8669C114.37 26.7609 114.41 26.7019 114.487 26.6907C114.504 26.6883 114.555 26.6738 114.64 26.6466C114.684 26.6557 114.73 26.6912 114.778 26.7534C114.825 26.8154 114.849 26.8704 114.849 26.9177C114.849 26.9222 114.845 26.9323 114.838 26.9481C114.831 26.9639 114.826 26.9938 114.823 27.0381C114.821 27.0819 114.797 27.1206 114.752 27.1535C114.707 27.186 114.659 27.2026 114.608 27.2026C114.574 27.2026 114.53 27.1807 114.478 27.1364C114.426 27.0926 114.397 27.0533 114.392 27.0194Z" fill="#F68C1F"/>
<path opacity="0.94" d="M115.577 28.508L115.653 28.4503C115.712 28.4458 115.743 28.4174 115.748 28.3656C115.753 28.3138 115.793 28.2684 115.869 28.23L115.912 28.1723C115.949 28.1384 116.049 28.0943 116.211 28.0401C116.253 28.0174 116.281 27.9971 116.295 27.9789C116.3 27.9744 116.305 27.9723 116.31 27.9723L116.369 27.9859C116.4 27.9859 116.441 27.9781 116.491 27.9621C116.54 27.9461 116.589 27.9383 116.635 27.9383L116.788 27.9317C116.798 27.9317 116.818 27.9383 116.848 27.952C116.878 27.9656 116.915 27.9723 116.959 27.9723C117.013 27.9723 117.062 27.995 117.107 28.0401C117.152 28.0852 117.175 28.1272 117.175 28.1656C117.175 28.2358 117.136 28.3069 117.058 28.3793C116.98 28.4516 116.919 28.4922 116.873 28.5013C116.831 28.5398 116.8 28.5641 116.778 28.5739C116.756 28.5844 116.733 28.6001 116.71 28.6215C116.687 28.6431 116.668 28.6538 116.654 28.6538C116.645 28.6538 116.637 28.6509 116.632 28.6455C116.627 28.6399 116.62 28.637 116.61 28.637C116.572 28.637 116.529 28.681 116.483 28.7692L116.417 28.7625C116.376 28.7873 116.35 28.8143 116.337 28.8439C116.325 28.8733 116.3 28.888 116.261 28.888C116.171 28.9716 116.11 29.0135 116.078 29.0135C116.073 29.0135 116.056 29.009 116.027 28.9999C116.008 29.0226 115.998 29.0464 115.998 29.0712C115.998 29.0984 115.979 29.1142 115.94 29.1187L115.892 29.1593L115.856 29.1527L115.783 29.224C115.746 29.224 115.709 29.2352 115.67 29.2579C115.665 29.2851 115.658 29.3193 115.648 29.3612C115.638 29.4031 115.633 29.4264 115.633 29.4309C115.633 29.4964 115.698 29.5292 115.827 29.5292L116.002 29.5054C116.048 29.5054 116.092 29.4942 116.132 29.4715C116.172 29.4488 116.215 29.4376 116.261 29.4376C116.276 29.4376 116.298 29.4331 116.327 29.424L116.364 29.4376C116.381 29.4037 116.412 29.3732 116.459 29.346C116.505 29.3188 116.541 29.3054 116.568 29.3054L116.605 29.2851C116.614 29.2579 116.629 29.24 116.648 29.2309L116.678 29.2071C116.697 29.1892 116.716 29.1799 116.732 29.1799H116.783L116.798 29.1732C116.827 29.1145 116.868 29.08 116.921 29.0696C116.973 29.0597 117.006 29.0432 117.019 29.0205C117.033 28.9978 117.056 28.9841 117.091 28.9799C117.125 28.9753 117.153 28.9601 117.176 28.9339C117.199 28.908 117.228 28.8837 117.262 28.8613C117.296 28.8386 117.32 28.8218 117.333 28.8106C117.347 28.7993 117.358 28.7937 117.368 28.7937C117.383 28.7937 117.39 28.8039 117.39 28.8242C117.39 28.8445 117.395 28.8546 117.405 28.8546C117.414 28.8546 117.419 28.8501 117.419 28.841C117.419 28.8319 117.417 28.8207 117.412 28.8071V28.7833C117.412 28.7494 117.431 28.7267 117.471 28.7155L117.635 28.6172C117.64 28.5697 117.653 28.5422 117.677 28.5339C117.7 28.5261 117.718 28.5173 117.73 28.5066C117.742 28.4968 117.755 28.4914 117.77 28.4914C117.801 28.4914 117.817 28.5082 117.817 28.5422L117.799 28.6303L117.817 28.7219C117.817 28.7355 117.806 28.7542 117.783 28.7777C117.76 28.8017 117.742 28.8378 117.73 28.8861C117.717 28.935 117.701 28.9614 117.682 28.966H117.66C117.616 29.009 117.582 29.0343 117.556 29.0421C117.531 29.0501 117.51 29.0643 117.496 29.0846L117.372 29.2167C117.347 29.2394 117.326 29.2597 117.309 29.2779C117.292 29.2958 117.279 29.3051 117.269 29.3051L117.24 29.2779C117.24 29.2734 117.235 29.2712 117.225 29.2712C117.2 29.2712 117.185 29.2848 117.179 29.3118C117.173 29.3391 117.16 29.3626 117.141 29.3831C117.068 29.4146 117.02 29.4443 116.999 29.4712L116.977 29.4779H116.911C116.88 29.4779 116.857 29.5001 116.845 29.5439C116.833 29.5882 116.798 29.6136 116.741 29.6203C116.684 29.6269 116.643 29.6406 116.619 29.6609C116.614 29.6654 116.603 29.6699 116.586 29.6745C116.569 29.679 116.534 29.6972 116.484 29.7287L116.177 29.8304C116.152 29.8417 116.136 29.8473 116.129 29.8473L116.027 29.8609C116.012 29.8609 115.998 29.8518 115.983 29.8336C115.969 29.8155 115.959 29.8064 115.954 29.8064L115.888 29.8267C115.839 29.8403 115.793 29.847 115.749 29.847C115.725 29.847 115.698 29.8393 115.669 29.8232C115.64 29.8072 115.617 29.796 115.6 29.7893C115.529 29.7893 115.479 29.7386 115.45 29.6368L115.406 29.6435C115.397 29.6435 115.364 29.5631 115.308 29.4029C115.293 29.385 115.27 29.3719 115.238 29.3639C115.207 29.3559 115.191 29.334 115.191 29.2977C115.191 29.1959 115.214 29.1275 115.262 29.0926C115.309 29.0573 115.336 29.0309 115.34 29.0127L115.392 28.8365C115.401 28.8298 115.413 28.8071 115.428 28.7686L115.512 28.6263C115.522 28.6103 115.543 28.571 115.578 28.5077L115.577 28.508ZM116.349 28.3045L116.305 28.3248C116.295 28.3293 116.266 28.3491 116.219 28.3841C116.172 28.4193 116.125 28.4474 116.08 28.469C116.036 28.4904 115.989 28.5462 115.942 28.6367C115.894 28.7272 115.871 28.779 115.871 28.7927C115.871 28.8063 115.878 28.813 115.893 28.813L116.017 28.7622C116.063 28.7419 116.106 28.7157 116.146 28.6842C116.186 28.6527 116.244 28.614 116.32 28.5689L116.349 28.5416C116.354 28.5325 116.377 28.5163 116.417 28.4922C116.457 28.4687 116.486 28.4455 116.506 28.4228L116.543 28.4092C116.584 28.348 116.626 28.3109 116.669 28.2973C116.712 28.2836 116.733 28.27 116.733 28.2567C116.733 28.2294 116.71 28.2161 116.664 28.2161C116.644 28.2161 116.615 28.2273 116.576 28.25H116.492C116.482 28.25 116.455 28.2636 116.412 28.2906L116.35 28.3042L116.349 28.3045Z" fill="#F68C1F"/>
<path opacity="0.94" d="M118.08 28.2706L118.132 28.1859C118.146 28.1656 118.165 28.1448 118.188 28.1234C118.211 28.1018 118.236 28.0465 118.263 27.957C118.29 27.8678 118.32 27.8064 118.353 27.7725C118.386 27.7386 118.434 27.7218 118.497 27.7218C118.534 27.7218 118.582 27.7383 118.642 27.7712C118.701 27.8037 118.76 27.9026 118.817 28.0676C118.874 28.2326 118.903 28.3491 118.903 28.4169C118.903 28.4441 118.911 28.4783 118.929 28.5203C118.946 28.5622 118.957 28.5942 118.961 28.6169C118.942 28.6554 118.932 28.677 118.932 28.6813L118.939 28.8204L118.895 28.9323V29.0138C118.866 29.0589 118.852 29.0872 118.852 29.0984C118.852 29.1121 118.857 29.1257 118.866 29.139C118.981 29.0939 119.05 29.057 119.074 29.0287C119.099 29.0007 119.122 28.9831 119.146 28.9764C119.169 28.9697 119.207 28.9401 119.26 28.8883L119.329 28.8543C119.354 28.8271 119.374 28.8031 119.391 28.7817C119.408 28.7601 119.428 28.7449 119.452 28.7358C119.475 28.7267 119.502 28.7109 119.534 28.6882C119.565 28.6655 119.611 28.6396 119.672 28.6103L119.708 28.5697C119.745 28.5312 119.788 28.5008 119.838 28.4781C119.888 28.4554 119.915 28.4442 119.919 28.4442C119.937 28.4442 119.954 28.465 119.973 28.5066C119.991 28.5486 120 28.59 120 28.6306C120 28.669 119.976 28.7069 119.929 28.7441C119.882 28.7817 119.849 28.8092 119.832 28.8274C119.815 28.8453 119.776 28.8613 119.716 28.8749C119.711 28.8773 119.671 28.9235 119.595 29.014L119.522 29.0546L119.486 29.0987C119.481 29.1078 119.448 29.1166 119.387 29.1259C119.385 29.1259 119.379 29.1372 119.371 29.1599C119.362 29.1826 119.336 29.1983 119.292 29.2074C119.205 29.2819 119.16 29.3238 119.157 29.3329L119.081 29.3465C119.066 29.3895 119.054 29.4154 119.044 29.4245C118.986 29.4381 118.953 29.4608 118.946 29.4923C118.939 29.4969 118.926 29.5014 118.909 29.506L118.895 29.5161C118.839 29.5567 118.784 29.5815 118.73 29.5906L118.647 29.6109L118.617 29.6515C118.617 29.6627 118.587 29.6777 118.528 29.6956C118.468 29.7135 118.424 29.7362 118.395 29.7634L118.333 29.8075C118.257 29.8347 118.21 29.8593 118.19 29.882H118.139C118.105 29.882 118.052 29.9052 117.979 29.9514C117.906 29.9979 117.848 30.0211 117.804 30.0211C117.663 30.0211 117.566 30.0046 117.514 29.9717C117.461 29.9391 117.418 29.8985 117.384 29.8497C117.35 29.8011 117.319 29.7623 117.291 29.7327C117.263 29.7033 117.249 29.6796 117.249 29.6614C117.249 29.6454 117.261 29.6299 117.284 29.6139C117.307 29.5978 117.332 29.5658 117.359 29.5172C117.386 29.4686 117.454 29.4376 117.563 29.424C117.568 29.424 117.586 29.4173 117.616 29.4037C117.646 29.3901 117.671 29.3834 117.691 29.3834C117.715 29.3834 117.745 29.4037 117.782 29.4445C117.782 29.4491 117.787 29.4512 117.797 29.4512L117.855 29.4445C117.882 29.4624 117.9 29.4718 117.91 29.4718C117.968 29.4718 118.03 29.4445 118.095 29.3903L118.11 29.3837H118.139C118.147 29.3837 118.159 29.3644 118.176 29.326L118.238 29.2074L118.365 29.0549V29.021C118.365 29.0143 118.373 28.9938 118.387 28.9598V28.9091C118.387 28.8888 118.402 28.8757 118.431 28.8701C118.46 28.8645 118.474 28.8503 118.474 28.8276L118.467 28.8004C118.448 28.7756 118.438 28.7563 118.438 28.7427L118.474 28.6749L118.467 28.6036L118.482 28.5763C118.472 28.5448 118.467 28.5264 118.467 28.5221L118.482 28.4375C118.482 28.4351 118.476 28.4137 118.462 28.3731C118.449 28.3325 118.438 28.312 118.431 28.312C118.416 28.312 118.37 28.3469 118.292 28.4172C118.214 28.4874 118.168 28.5368 118.153 28.5665C118.139 28.5961 118.108 28.6223 118.06 28.6463C118.013 28.6698 117.981 28.6965 117.963 28.7259C117.946 28.7553 117.926 28.7724 117.901 28.7766L117.656 28.9598L117.389 29.143C117.37 29.1633 117.358 29.1735 117.353 29.1735C117.263 29.1735 117.217 29.127 117.217 29.0343C117.217 29.005 117.236 28.9518 117.272 28.8749C117.289 28.8658 117.302 28.8589 117.311 28.8546C117.319 28.8501 117.323 28.8469 117.323 28.8445C117.323 28.8421 117.321 28.841 117.316 28.841L117.338 28.8546H117.345C117.435 28.798 117.494 28.7654 117.521 28.7563C117.547 28.7473 117.572 28.7224 117.594 28.6818L117.747 28.5801C117.786 28.5528 117.846 28.5032 117.926 28.4308C118.007 28.3584 118.058 28.3053 118.08 28.2714L118.08 28.2706Z" fill="#F68C1F"/>
</g>
<defs>
<clipPath id="clip0_10_1003">
<rect width="120" height="32" fill="white"/>
</clipPath>
</defs>
</svg>
